<?xml version="1.0" encoding="UTF-8"?>
<svg id="svg36" xmlns="http://www.w3.org/2000/svg" xmlns:svg="http://www.w3.org/2000/svg" xmlns:sodipodi="http://sodipodi.sourceforge.net/DTD/sodipodi-0.dtd" xmlns:rdf="http://www.w3.org/1999/02/22-rdf-syntax-ns#" xmlns:inkscape="http://www.inkscape.org/namespaces/inkscape" xmlns:dc="http://purl.org/dc/elements/1.1/" xmlns:cc="http://creativecommons.org/ns#" version="1.1" viewBox="0 0 540 67">
  <defs>
    <style>
      .cls-1 {
        fill: #000;
        stroke-width: 0px;
      }
    </style>
  </defs>
  <sodipodi:namedview id="namedview38" bordercolor="#666666" borderopacity="1" fit-margin-bottom="0" fit-margin-left="0" fit-margin-right="0" fit-margin-top="0" gridtolerance="10" guidetolerance="10" inkscape:current-layer="svg36" inkscape:cx="358.15928" inkscape:cy="25.92" inkscape:pageopacity="0" inkscape:pageshadow="2" inkscape:window-height="480" inkscape:window-maximized="0" inkscape:window-width="780" inkscape:window-x="0" inkscape:window-y="0" inkscape:zoom="0.81666667" objecttolerance="10" pagecolor="#ffffff" showgrid="false"/>
  <path id="path13" class="cls-1" d="M19.6,30.5c-.6-.8-1.8-1-2.6-.4-.2.2-.4.4-.6.7L.2,63.3c-.5,1,0,2.1.9,2.6.3.1.6.2.9.2h22.6c.7,0,1.4-.4,1.7-1.1,4.9-10,1.9-25.4-6.6-34.5Z" inkscape:connector-curvature="0"/>
  <path id="path15" class="cls-1" d="M31.5,1c-8.2,12.7-9.2,28.7-2.5,42.3l10.9,21.7c.3.7,1,1.1,1.7,1.1h22.6c1.1,0,1.9-1.1,1.8-2.2,0-.2,0-.4-.2-.6L34.8,1c-.4-.9-1.5-1.3-2.4-.9-.4.2-.7.5-.9.9Z" inkscape:connector-curvature="0"/>
  <polygon id="polygon17" class="cls-1" points="509 35.6 525.4 66.1 540 66.1 540 11.7 528.4 11.7 528.4 46.8 524 36.6 510.8 11.7 492.5 11.7 492.5 66.1 504.1 66.1 504.1 24.6 509 35.6"/>
  <rect id="rect19" class="cls-1" x="406.1" y="11.7" width="12.7" height="54.4"/>
  <path id="path21" class="cls-1" d="M391.4,50c0-9.5-5-14-19.3-17.1-7.9-1.7-9.8-3.5-9.8-6s2.8-4.5,8-4.5,12.5,1.9,18.4,4.6v-12.4c-5.6-2.6-11.8-3.8-18-3.7-14.1,0-21.4,6.1-21.4,16.2s3.7,14.4,18.3,17.2c8.7,1.8,10.5,3.2,10.5,6.1s-1.8,4.6-8,4.6c-7.4-.1-14.7-2.1-21.1-5.7v13.1c4.4,2.2,10.2,4.6,21,4.6s21.3-6.8,21.3-16.9" inkscape:connector-curvature="0"/>
  <path id="path23" class="cls-1" d="M338.6,50c0-9.5-5-14-19.3-17.1-7.9-1.7-9.8-3.5-9.8-6s2.8-4.5,8-4.5,12.5,1.9,18.4,4.6v-12.4c-5.6-2.6-11.8-3.8-18-3.7-14.1,0-21.4,6.1-21.4,16.2s3.7,14.4,18.3,17.2c8.7,1.8,10.5,3.2,10.5,6.1s-1.8,4.6-8,4.6c-7.4-.1-14.7-2.1-21.1-5.7v13.1c4.4,2.2,10.2,4.6,21,4.6s21.3-6.8,21.3-16.9" inkscape:connector-curvature="0"/>
  <polygon id="polygon25" class="cls-1" points="210.9 54.4 210.9 11.7 198.2 11.7 198.2 66.1 224.2 66.1 228.3 54.4 210.9 54.4"/>
  <polygon id="polygon27" class="cls-1" points="173.5 66.1 173.5 23.5 188.6 23.5 188.6 11.7 146.7 11.7 146.7 23.5 160.8 23.5 160.8 66.1 173.5 66.1"/>
  <path id="path29" class="cls-1" d="M128.2,11.7h-16.7l-19,54.4h14.6l2.7-9.2c6.6,1.9,13.7,1.9,20.3,0l2.7,9.2h14.5l-19-54.4ZM119.8,47.2c-2.4,0-4.7-.3-7-1l7-23.8,7,23.8c-2.3.7-4.6,1-7,1Z" inkscape:connector-curvature="0"/>
  <path id="path31" class="cls-1" d="M269.1,11.7h-16.7l-19,54.4h14.5l2.7-9.2c6.6,1.9,13.7,1.9,20.3,0l2.7,9.2h14.5l-19-54.4ZM260.8,47.2c-2.4,0-4.7-.3-7-1l7-23.8,7,23.8c-2.3.7-4.6,1-7,1Z" inkscape:connector-curvature="0"/>
  <path id="path33" class="cls-1" d="M464.4,11.7h-16.7l-19,54.4h14.5l2.7-9.2c6.6,1.9,13.7,1.9,20.3,0l2.7,9.2h14.5l-19-54.4ZM456.1,47.2c-2.4,0-4.7-.3-7-1l7-23.8,7,23.8c-2.3.7-4.6,1-7,1Z" inkscape:connector-curvature="0"/>
</svg>