<svg width="421" height="562" viewBox="0 0 421 562" fill="none" xmlns="http://www.w3.org/2000/svg">
<g clip-path="url(#clip0_136_13)">
<path d="M106.607 562L194.208 388.265L281.809 214.531C186.096 166.01 69.3066 204.493 20.9072 300.445C-27.4922 396.397 10.8947 513.479 106.607 562Z" fill="white"/>
<path d="M207.411 380.099C204.221 379.861 201.777 377.207 201.777 374.076V373.6C202.015 370.266 204.9 367.748 208.226 367.986C211.416 368.19 213.86 370.844 213.86 373.974V374.451C213.622 377.649 210.975 380.099 207.818 380.099H207.411ZM235.039 374.076C235.039 373.872 235.039 373.668 235.039 373.464C235.039 370.368 237.347 367.748 240.469 367.441C243.796 367.067 246.748 369.483 247.088 372.818C247.088 373.022 247.088 373.226 247.088 373.43C247.088 376.526 244.78 379.146 241.657 379.487C241.454 379.487 241.25 379.487 241.046 379.487C237.992 379.487 235.344 377.173 235.039 374.042V374.076ZM173.538 374.757C170.789 374.11 168.956 371.661 168.922 368.939C168.922 368.462 168.99 367.952 169.126 367.441C169.907 364.175 173.165 362.202 176.423 362.984C179.173 363.665 181.005 366.114 181.039 368.837C181.039 369.313 180.971 369.823 180.87 370.334C180.191 373.09 177.713 374.961 174.998 374.961C174.523 374.961 174.014 374.893 173.538 374.757ZM267.859 368.837C267.724 368.292 267.622 367.748 267.622 367.203C267.656 364.549 269.387 362.134 272.068 361.385C275.293 360.466 278.653 362.338 279.535 365.57C279.705 366.115 279.773 366.693 279.773 367.237C279.773 369.857 278.008 372.307 275.36 373.056C274.817 373.192 274.24 373.26 273.697 373.26C271.084 373.26 268.64 371.525 267.893 368.837H267.859ZM141.091 363.733C138.851 362.746 137.493 360.568 137.459 358.255C137.459 357.404 137.629 356.553 137.969 355.737C139.326 352.674 142.89 351.279 145.945 352.606C148.185 353.593 149.542 355.805 149.576 358.084C149.576 358.935 149.407 359.786 149.067 360.602C148.083 362.882 145.843 364.243 143.501 364.243C142.72 364.243 141.872 364.073 141.091 363.733ZM299.323 358.118C298.915 357.268 298.745 356.383 298.745 355.499C298.745 353.219 300.035 351.075 302.207 350.02C305.228 348.591 308.826 349.884 310.251 352.913C310.659 353.763 310.862 354.648 310.862 355.533C310.862 357.778 309.573 359.956 307.4 360.977C306.552 361.385 305.669 361.589 304.821 361.589C302.547 361.589 300.375 360.296 299.323 358.118ZM328.545 342.195C327.765 341.106 327.425 339.881 327.425 338.69C327.425 336.784 328.308 334.913 329.971 333.756C332.72 331.783 336.488 332.463 338.422 335.185C339.169 336.274 339.542 337.499 339.508 338.69C339.508 340.595 338.626 342.467 336.963 343.624C335.911 344.406 334.689 344.746 333.501 344.746C331.6 344.746 329.733 343.862 328.545 342.195ZM141.023 338.928C138.919 337.839 137.697 335.73 137.697 333.552C137.697 332.599 137.901 331.647 138.342 330.762C139.835 327.768 143.467 326.577 146.454 328.108C148.558 329.163 149.78 331.272 149.78 333.484C149.78 334.403 149.576 335.355 149.135 336.24C148.083 338.35 145.945 339.575 143.738 339.575C142.822 339.575 141.872 339.37 141.023 338.928ZM354.578 321.507C353.39 320.316 352.813 318.751 352.813 317.22C352.813 315.655 353.39 314.123 354.578 312.933C356.92 310.551 360.755 310.551 363.131 312.933C364.319 314.123 364.896 315.689 364.896 317.22C364.896 318.785 364.319 320.35 363.131 321.507C361.943 322.698 360.416 323.31 358.854 323.31C357.293 323.31 355.766 322.698 354.578 321.541V321.507ZM156.025 309.156C153.921 308.101 152.699 305.957 152.699 303.78C152.699 302.827 152.902 301.874 153.344 300.99C154.871 298.029 158.503 296.804 161.489 298.336C163.56 299.39 164.782 301.5 164.816 303.712C164.816 304.63 164.578 305.583 164.137 306.468C163.085 308.577 160.946 309.802 158.74 309.802C157.824 309.802 156.907 309.598 156.025 309.156ZM376.707 296.634C375.044 295.477 374.128 293.606 374.128 291.701C374.128 290.476 374.467 289.251 375.214 288.196H375.248C377.148 285.44 380.916 284.793 383.665 286.699C385.328 287.89 386.211 289.727 386.211 291.633C386.211 292.857 385.871 294.082 385.124 295.137H385.158C383.971 296.838 382.07 297.723 380.169 297.723C378.981 297.723 377.759 297.383 376.707 296.634ZM171.027 279.383C168.922 278.329 167.735 276.185 167.701 274.007C167.701 273.055 167.904 272.136 168.345 271.251C169.873 268.257 173.504 267.066 176.491 268.563C178.596 269.618 179.783 271.728 179.817 273.939C179.817 274.858 179.614 275.811 179.139 276.695C178.086 278.805 175.982 280.03 173.776 280.03C172.86 280.03 171.909 279.826 171.027 279.383ZM394.255 268.359C392.116 267.304 390.827 265.161 390.827 262.915C390.793 262.03 390.996 261.112 391.404 260.261C392.795 257.233 396.427 255.94 399.447 257.369C401.62 258.424 402.875 260.567 402.909 262.813C402.909 263.698 402.74 264.616 402.332 265.467C401.28 267.645 399.108 268.938 396.868 268.938C395.986 268.938 395.103 268.733 394.255 268.359ZM186.029 249.611C183.958 248.556 182.736 246.447 182.736 244.235C182.736 243.316 182.94 242.364 183.381 241.479C184.875 238.485 188.506 237.294 191.493 238.791C193.597 239.846 194.819 241.955 194.819 244.167C194.819 245.12 194.616 246.038 194.174 246.923C193.088 249.067 190.984 250.258 188.778 250.258C187.861 250.258 186.911 250.053 186.029 249.611ZM406.847 237.464C404.165 236.749 402.4 234.334 402.4 231.68C402.4 231.135 402.468 230.557 402.638 230.012C403.52 226.78 406.847 224.908 410.071 225.793C412.752 226.542 414.483 228.958 414.517 231.612C414.517 232.156 414.449 232.7 414.28 233.245C413.533 235.933 411.089 237.702 408.442 237.702C407.933 237.702 407.39 237.634 406.847 237.464ZM201.064 219.839C198.96 218.784 197.738 216.674 197.738 214.463C197.738 213.544 197.942 212.591 198.383 211.707C199.876 208.712 203.508 207.521 206.495 209.019C208.599 210.073 209.821 212.217 209.821 214.395C209.821 215.347 209.617 216.3 209.176 217.185C208.124 219.294 205.986 220.519 203.78 220.519C202.863 220.519 201.947 220.281 201.064 219.839ZM413.94 204.935C410.818 204.595 408.51 201.975 408.51 198.913V198.3C408.849 194.966 411.802 192.516 415.128 192.856C418.251 193.163 420.559 195.783 420.592 198.879C420.592 199.083 420.592 199.287 420.592 199.491C420.287 202.622 417.64 204.935 414.585 204.935H413.974H413.94ZM216.066 190.066C213.962 189.012 212.74 186.902 212.74 184.69C212.74 183.772 212.944 182.819 213.385 181.934C214.912 178.94 218.544 177.749 221.53 179.246C223.601 180.301 224.823 182.445 224.857 184.656C224.857 185.575 224.653 186.528 224.212 187.412C223.126 189.522 220.987 190.747 218.781 190.747C217.865 190.747 216.949 190.509 216.066 190.066ZM408.883 166.01V165.568C408.883 162.404 411.293 159.75 414.483 159.511C417.809 159.273 420.728 161.791 420.966 165.126C420.966 165.126 420.966 165.432 420.966 165.602C420.966 168.732 418.522 171.386 415.366 171.624H414.89C411.768 171.624 409.121 169.209 408.849 166.01H408.883ZM231.068 160.328C228.964 159.239 227.776 157.13 227.742 154.918C227.742 153.999 227.945 153.047 228.42 152.162C229.914 149.168 233.545 147.977 236.532 149.474C238.637 150.563 239.825 152.672 239.858 154.884C239.858 155.803 239.655 156.755 239.214 157.64C238.127 159.75 236.023 160.974 233.817 160.974C232.901 160.974 231.95 160.77 231.068 160.328ZM403.792 134.162C403.656 133.652 403.588 133.142 403.588 132.631C403.588 129.943 405.455 127.493 408.204 126.813C411.428 125.996 414.721 127.97 415.535 131.236C415.637 131.712 415.705 132.223 415.705 132.733C415.705 135.421 413.872 137.871 411.123 138.552C410.648 138.688 410.139 138.756 409.664 138.756C406.948 138.756 404.471 136.918 403.792 134.162ZM246.07 130.556C243.999 129.467 242.777 127.357 242.777 125.146C242.777 124.227 242.981 123.274 243.422 122.39C244.916 119.395 248.547 118.204 251.534 119.735C253.638 120.79 254.86 122.9 254.86 125.112C254.86 126.03 254.657 126.983 254.215 127.868C253.163 129.977 251.025 131.202 248.819 131.202C247.902 131.202 246.952 130.998 246.07 130.556ZM393.372 103.607C392.999 102.791 392.829 101.94 392.829 101.124C392.829 98.8098 394.221 96.6322 396.461 95.6114C399.515 94.2844 403.079 95.6454 404.437 98.7417C404.776 99.5243 404.946 100.375 404.946 101.226C404.912 103.539 403.588 105.717 401.348 106.704C400.534 107.078 399.719 107.248 398.904 107.248C396.562 107.248 394.356 105.887 393.372 103.607ZM261.105 100.783C259.001 99.7285 257.779 97.6189 257.779 95.4072C257.779 94.4545 257.983 93.5358 258.424 92.6171C259.917 89.6229 263.583 88.432 266.57 89.9632C268.674 91.0179 269.862 93.1275 269.896 95.3392C269.896 96.2579 269.658 97.2106 269.217 98.0953C268.165 100.205 266.027 101.43 263.821 101.43C262.904 101.43 261.988 101.226 261.105 100.783ZM377.895 75.2981C377.216 74.2433 376.877 73.0865 376.911 71.8956C376.911 69.9561 377.861 68.0507 379.592 66.8938C382.375 65.0564 386.143 65.805 388.009 68.5951C388.722 69.6499 389.028 70.8408 389.028 71.9977C389.028 73.9371 388.077 75.8425 386.346 76.9994C385.294 77.6799 384.14 78.0202 382.986 78.0202C381.018 78.0202 379.117 77.0675 377.929 75.2981H377.895ZM276.107 71.0109C274.003 69.9561 272.815 67.8465 272.781 65.6349C272.781 64.6822 272.985 63.7635 273.426 62.8788C274.953 59.8846 278.585 58.6596 281.572 60.1908C283.676 61.2456 284.864 63.3552 284.898 65.5668C284.898 66.5195 284.694 67.4382 284.253 68.3569C283.167 70.4325 281.028 71.6574 278.822 71.6574C277.906 71.6574 276.99 71.4533 276.107 71.0109ZM357.87 50.0512C356.784 48.8943 356.207 47.3632 356.241 45.866C356.241 44.2668 356.852 42.6676 358.108 41.4767C360.551 39.197 364.353 39.2991 366.661 41.7149C367.781 42.9058 368.324 44.4029 368.324 45.9001C368.324 47.4993 367.679 49.0985 366.423 50.2894C365.269 51.4122 363.776 51.9566 362.282 51.9566C360.687 51.9566 359.058 51.3101 357.87 50.0512ZM291.109 41.2386C289.005 40.1838 287.817 38.0742 287.817 35.8625C287.817 34.9438 288.02 33.9911 288.461 33.1065C289.955 30.1122 293.587 28.9213 296.573 30.4184C298.678 31.4732 299.899 33.5828 299.899 35.7945C299.899 36.7472 299.696 37.6659 299.255 38.5506C298.202 40.6601 296.064 41.8851 293.858 41.8851C292.942 41.8851 291.991 41.6809 291.109 41.2386ZM333.84 28.6151C332.211 27.4582 331.396 25.6208 331.396 23.7835C331.396 22.5245 331.77 21.2315 332.584 20.1427C334.553 17.4547 338.354 16.9103 341.036 18.9178C342.631 20.0747 343.479 21.9121 343.479 23.7494C343.479 25.0084 343.106 26.3014 342.291 27.3902C341.103 28.9894 339.271 29.84 337.438 29.84C336.182 29.84 334.892 29.4317 333.84 28.6151ZM306.45 11.6363C306.45 11.6363 306.45 11.6363 306.382 11.6363C306.382 11.6363 306.212 11.5683 306.111 11.5002C303.158 10.0031 301.97 6.36238 303.463 3.36813C304.957 0.373885 308.622 -0.817009 311.609 0.680115C311.609 0.680115 311.677 0.748166 311.745 0.748166C311.745 0.748166 311.847 0.816217 311.914 0.850242C313.985 1.93906 315.207 4.04864 315.207 6.2603C315.207 7.17899 315.003 8.13171 314.562 9.01637C313.476 11.126 311.371 12.3169 309.165 12.3169C308.215 12.3169 307.299 12.1127 306.416 11.6704L306.45 11.6363Z" fill="#E3EC42"/>
</g>
<defs>
<clipPath id="clip0_136_13">
<rect width="421" height="562" fill="white"/>
</clipPath>
</defs>
</svg>
