<svg viewBox="0 0 562 562" fill="none" xmlns="http://www.w3.org/2000/svg">
<path class="crescent" d="M177.633 561.966L265.234 388.231L352.835 214.497C257.122 165.976 140.332 204.459 91.9326 300.411C43.5332 396.363 81.9201 513.445 177.633 561.966Z" fill="white"/>
<path class="dots" d="M278.437 380.065C275.246 379.827 272.802 377.173 272.802 374.042V373.566C273.04 370.231 275.925 367.714 279.251 367.952C282.442 368.156 284.885 370.81 284.885 373.94V374.417C284.648 377.615 282 380.065 278.844 380.065H278.437ZM306.064 374.042C306.064 373.838 306.064 373.634 306.064 373.43C306.064 370.334 308.372 367.714 311.495 367.407C314.821 367.033 317.774 369.449 318.113 372.783C318.113 372.987 318.113 373.192 318.113 373.396C318.113 376.492 315.805 379.112 312.683 379.452C312.479 379.452 312.275 379.452 312.072 379.452C309.017 379.452 306.37 377.139 306.064 374.008V374.042ZM244.564 374.723C241.815 374.076 239.982 371.626 239.948 368.904C239.948 368.428 240.016 367.918 240.152 367.407C240.932 364.141 244.19 362.167 247.449 362.95C250.198 363.63 252.031 366.08 252.065 368.802C252.065 369.279 251.997 369.789 251.895 370.299C251.216 373.056 248.738 374.927 246.023 374.927C245.548 374.927 245.039 374.859 244.564 374.723ZM338.885 368.802C338.749 368.258 338.647 367.714 338.647 367.169C338.681 364.515 340.412 362.099 343.094 361.351C346.318 360.432 349.678 362.303 350.56 365.536C350.73 366.08 350.798 366.659 350.798 367.203C350.798 369.823 349.033 372.273 346.386 373.022C345.843 373.158 345.266 373.226 344.723 373.226C342.109 373.226 339.666 371.49 338.919 368.802H338.885ZM212.117 363.699C209.876 362.712 208.519 360.534 208.485 358.22C208.485 357.37 208.655 356.519 208.994 355.703C210.352 352.64 213.915 351.245 216.97 352.572C219.21 353.559 220.568 355.771 220.602 358.05C220.602 358.901 220.432 359.752 220.093 360.568C219.108 362.848 216.868 364.209 214.526 364.209C213.746 364.209 212.897 364.039 212.117 363.699ZM370.348 358.084C369.941 357.234 369.771 356.349 369.771 355.464C369.771 353.185 371.061 351.041 373.233 349.986C376.254 348.557 379.851 349.85 381.277 352.878C381.684 353.729 381.888 354.614 381.888 355.498C381.888 357.744 380.598 359.922 378.426 360.942C377.577 361.351 376.695 361.555 375.846 361.555C373.572 361.555 371.4 360.262 370.348 358.084ZM399.571 342.16C398.79 341.072 398.451 339.847 398.451 338.656C398.451 336.75 399.333 334.879 400.996 333.722C403.746 331.749 407.513 332.429 409.448 335.151C410.194 336.24 410.568 337.465 410.534 338.656C410.534 340.561 409.651 342.433 407.988 343.589C406.936 344.372 405.714 344.712 404.526 344.712C402.625 344.712 400.759 343.828 399.571 342.16ZM212.049 338.894C209.944 337.805 208.722 335.695 208.722 333.518C208.722 332.565 208.926 331.612 209.367 330.728C210.861 327.734 214.492 326.543 217.479 328.074C219.583 329.129 220.805 331.238 220.805 333.45C220.805 334.369 220.602 335.321 220.16 336.206C219.108 338.315 216.97 339.54 214.764 339.54C213.847 339.54 212.897 339.336 212.049 338.894ZM425.603 321.473C424.415 320.282 423.838 318.717 423.838 317.186C423.838 315.62 424.415 314.089 425.603 312.898C427.945 310.517 431.78 310.517 434.156 312.898C435.344 314.089 435.921 315.654 435.921 317.186C435.921 318.751 435.344 320.316 434.156 321.473C432.968 322.664 431.441 323.276 429.88 323.276C428.319 323.276 426.791 322.664 425.603 321.507V321.473ZM227.05 309.122C224.946 308.067 223.724 305.923 223.724 303.746C223.724 302.793 223.928 301.84 224.369 300.955C225.896 297.995 229.528 296.77 232.515 298.301C234.585 299.356 235.807 301.466 235.841 303.677C235.841 304.596 235.603 305.549 235.162 306.434C234.11 308.543 231.972 309.768 229.766 309.768C228.849 309.768 227.933 309.564 227.05 309.122ZM447.733 296.6C446.069 295.443 445.153 293.572 445.153 291.666C445.153 290.442 445.493 289.217 446.239 288.162H446.273C448.174 285.406 451.941 284.759 454.69 286.665C456.354 287.856 457.236 289.693 457.236 291.598C457.236 292.823 456.897 294.048 456.15 295.103H456.184C454.996 296.804 453.095 297.689 451.195 297.689C450.007 297.689 448.785 297.349 447.733 296.6ZM242.052 279.349C239.948 278.294 238.76 276.151 238.726 273.973C238.726 273.02 238.93 272.102 239.371 271.217C240.898 268.223 244.53 267.032 247.517 268.529C249.621 269.584 250.809 271.693 250.843 273.905C250.843 274.824 250.639 275.777 250.164 276.661C249.112 278.771 247.008 279.996 244.801 279.996C243.885 279.996 242.935 279.792 242.052 279.349ZM465.28 268.325C463.142 267.27 461.852 265.127 461.852 262.881C461.818 261.996 462.022 261.077 462.429 260.227C463.82 257.199 467.452 255.906 470.473 257.335C472.645 258.389 473.901 260.533 473.935 262.779C473.935 263.663 473.765 264.582 473.358 265.433C472.306 267.61 470.133 268.903 467.893 268.903C467.011 268.903 466.128 268.699 465.28 268.325ZM257.054 249.577C254.984 248.522 253.762 246.412 253.762 244.201C253.762 243.282 253.965 242.329 254.407 241.445C255.9 238.45 259.532 237.26 262.518 238.757C264.623 239.812 265.845 241.921 265.845 244.133C265.845 245.085 265.641 246.004 265.2 246.889C264.114 249.032 262.009 250.223 259.803 250.223C258.887 250.223 257.936 250.019 257.054 249.577ZM477.872 237.43C475.191 236.715 473.426 234.299 473.426 231.645C473.426 231.101 473.494 230.523 473.663 229.978C474.546 226.746 477.872 224.874 481.096 225.759C483.778 226.508 485.509 228.923 485.542 231.577C485.542 232.122 485.475 232.666 485.305 233.211C484.558 235.899 482.114 237.668 479.467 237.668C478.958 237.668 478.415 237.6 477.872 237.43ZM272.09 219.804C269.985 218.75 268.763 216.64 268.763 214.428C268.763 213.51 268.967 212.557 269.408 211.672C270.902 208.678 274.533 207.487 277.52 208.984C279.624 210.039 280.846 212.183 280.846 214.36C280.846 215.313 280.643 216.266 280.201 217.15C279.149 219.26 277.011 220.485 274.805 220.485C273.889 220.485 272.972 220.247 272.09 219.804ZM484.966 204.901C481.843 204.561 479.535 201.941 479.535 198.879V198.266C479.874 194.932 482.827 192.482 486.153 192.822C489.276 193.128 491.584 195.748 491.618 198.845C491.618 199.049 491.618 199.253 491.618 199.457C491.312 202.588 488.665 204.901 485.61 204.901H484.999H484.966ZM287.091 190.032C284.987 188.977 283.765 186.868 283.765 184.656C283.765 183.737 283.969 182.785 284.41 181.9C285.937 178.906 289.569 177.715 292.556 179.212C294.626 180.267 295.848 182.41 295.882 184.622C295.882 185.541 295.678 186.493 295.237 187.378C294.151 189.488 292.013 190.713 289.807 190.713C288.89 190.713 287.974 190.474 287.091 190.032ZM479.908 165.976V165.534C479.908 162.369 482.318 159.715 485.509 159.477C488.835 159.239 491.754 161.757 491.991 165.091C491.991 165.091 491.991 165.398 491.991 165.568C491.991 168.698 489.547 171.352 486.391 171.59H485.916C482.793 171.59 480.146 169.174 479.874 165.976H479.908ZM302.093 160.294C299.989 159.205 298.801 157.095 298.767 154.884C298.767 153.965 298.971 153.012 299.446 152.128C300.939 149.133 304.571 147.943 307.558 149.44C309.662 150.528 310.85 152.638 310.884 154.85C310.884 155.768 310.68 156.721 310.239 157.606C309.153 159.715 307.049 160.94 304.842 160.94C303.926 160.94 302.976 160.736 302.093 160.294ZM474.817 134.128C474.681 133.618 474.614 133.107 474.614 132.597C474.614 129.909 476.48 127.459 479.23 126.779C482.454 125.962 485.746 127.936 486.561 131.202C486.663 131.678 486.73 132.189 486.73 132.699C486.73 135.387 484.898 137.837 482.148 138.517C481.673 138.654 481.164 138.722 480.689 138.722C477.974 138.722 475.496 136.884 474.817 134.128ZM317.095 130.521C315.025 129.433 313.803 127.323 313.803 125.111C313.803 124.193 314.006 123.24 314.448 122.355C315.941 119.361 319.573 118.17 322.559 119.701C324.664 120.756 325.886 122.866 325.886 125.077C325.886 125.996 325.682 126.949 325.241 127.833C324.189 129.943 322.05 131.168 319.844 131.168C318.928 131.168 317.977 130.964 317.095 130.521ZM464.397 103.573C464.024 102.757 463.854 101.906 463.854 101.089C463.854 98.7756 465.246 96.598 467.486 95.5772C470.541 94.2502 474.105 95.6112 475.462 98.7076C475.802 99.4902 475.971 100.341 475.971 101.191C475.937 103.505 474.614 105.683 472.374 106.67C471.559 107.044 470.744 107.214 469.93 107.214C467.588 107.214 465.382 105.853 464.397 103.573ZM332.131 100.749C330.026 99.6943 328.805 97.5847 328.805 95.3731C328.805 94.4203 329.008 93.5016 329.449 92.583C330.943 89.5887 334.608 88.3978 337.595 89.929C339.699 90.9838 340.887 93.0933 340.921 95.305C340.921 96.2237 340.684 97.1764 340.243 98.0611C339.19 100.171 337.052 101.396 334.846 101.396C333.93 101.396 333.013 101.191 332.131 100.749ZM448.921 75.264C448.242 74.2092 447.902 73.0523 447.936 71.8614C447.936 69.9219 448.887 68.0165 450.618 66.8596C453.401 65.0223 457.168 65.7708 459.035 68.5609C459.748 69.6157 460.053 70.8066 460.053 71.9635C460.053 73.9029 459.103 75.8084 457.372 76.9652C456.32 77.6457 455.166 77.986 454.012 77.986C452.043 77.986 450.142 77.0333 448.954 75.264H448.921ZM347.132 70.9767C345.028 69.922 343.84 67.8124 343.806 65.6007C343.806 64.648 344.01 63.7293 344.451 62.8446C345.978 59.8504 349.61 58.6255 352.597 60.1566C354.701 61.2114 355.889 63.321 355.923 65.5327C355.923 66.4854 355.719 67.4041 355.278 68.3227C354.192 70.3983 352.054 71.6232 349.848 71.6232C348.931 71.6232 348.015 71.4191 347.132 70.9767ZM428.896 50.017C427.809 48.8601 427.232 47.329 427.266 45.8319C427.266 44.2327 427.877 42.6335 429.133 41.4426C431.577 39.1629 435.378 39.2649 437.686 41.6807C438.806 42.8716 439.349 44.3688 439.349 45.8659C439.349 47.4651 438.704 49.0643 437.449 50.2552C436.295 51.378 434.801 51.9224 433.308 51.9224C431.713 51.9224 430.083 51.276 428.896 50.017ZM362.134 41.2044C360.03 40.1496 358.842 38.04 358.842 35.8284C358.842 34.9097 359.046 33.9569 359.487 33.0723C360.98 30.078 364.612 28.8871 367.599 30.3843C369.703 31.4391 370.925 33.5486 370.925 35.7603C370.925 36.713 370.721 37.6317 370.28 38.5164C369.228 40.626 367.09 41.8509 364.883 41.8509C363.967 41.8509 363.017 41.6467 362.134 41.2044ZM404.866 28.5809C403.236 27.424 402.422 25.5867 402.422 23.7493C402.422 22.4903 402.795 21.1974 403.61 20.1085C405.578 17.4205 409.38 16.8761 412.061 18.8836C413.656 20.0405 414.505 21.8779 414.505 23.7153C414.505 24.9742 414.131 26.2672 413.317 27.356C412.129 28.9552 410.296 29.8058 408.463 29.8058C407.207 29.8058 405.918 29.3975 404.866 28.5809ZM377.475 11.6022C377.475 11.6022 377.475 11.6022 377.408 11.6022C377.408 11.6022 377.238 11.5341 377.136 11.4661C374.183 9.96894 372.995 6.3282 374.489 3.33395C375.982 0.339705 379.648 -0.851189 382.634 0.645935C382.634 0.645935 382.702 0.713986 382.77 0.713986C382.77 0.713986 382.872 0.782037 382.94 0.816063C385.01 1.90488 386.232 4.01446 386.232 6.22612C386.232 7.14481 386.028 8.09753 385.587 8.98219C384.501 11.0918 382.397 12.2827 380.191 12.2827C379.24 12.2827 378.324 12.0785 377.441 11.6362L377.475 11.6022Z" fill="#E3EC42"/>
</svg>
