<svg width="352" height="75" viewBox="0 0 352 75" fill="none" xmlns="http://www.w3.org/2000/svg">
<path d="M152.546 13.8697C147.31 13.8697 141.355 16.3027 137.716 21.174L137.718 21.1646L137.716 21.167L137.718 14.6343H125.229V60.2248H137.716V34.2834C137.716 29.6147 141.327 24.6512 148.014 24.6512C153.181 24.6512 158.529 28.2546 158.529 34.2834V60.2248H171.018V31.9637C171.018 21.4776 163.534 13.8697 152.546 13.8697ZM259.784 14.6367L248.493 45.6914L237.202 14.6367H222.935L241.649 60.2125H255.335L274.048 14.6367H259.784ZM87.9437 28.3709C90.0704 25.508 93.4584 23.8272 97.55 23.8272C102.051 23.8272 105.465 26.4035 107.23 30.2066L85.4104 39.2809C84.8146 34.624 86.0033 30.9818 87.9437 28.3709ZM111.938 46.2082C106.681 50.1076 103.678 51.0378 98.8846 51.0378C94.5709 51.0378 91.1935 49.6953 88.8125 47.341L120.742 34.0637C120.045 29.1161 118.171 24.6958 115.289 21.3349C111.093 16.4513 104.884 13.8674 97.3233 13.8674C83.5908 13.8674 73.2357 24.0222 73.2357 37.4352C73.2357 51.1958 83.6154 61 98.7001 61C107.152 61 115.793 56.9849 119.835 52.2939L111.938 46.2082ZM72.0453 48.7299H43.6598V1H31V60.2248H72.0453V48.7299ZM296.474 24.5954C289.5 24.5954 284.435 29.8936 284.435 37.4305C284.435 44.6267 289.8 50.2655 296.642 50.2655C303.619 50.2655 308.681 44.8217 308.681 37.4305C308.681 30.2342 303.318 24.5954 296.474 24.5954ZM296.474 60.9935C282.815 60.9935 272.113 50.7935 272.113 37.4305C272.113 24.2172 282.889 13.8674 296.642 13.8674C310.3 13.8674 321 24.0668 321 37.4305C321 50.6408 310.226 60.9935 296.474 60.9935ZM200.318 24.5954C193.343 24.5954 188.281 29.8936 188.281 37.4305C188.281 44.6267 193.644 50.2655 200.488 50.2655C207.462 50.2655 212.524 44.8217 212.524 37.4305C212.524 30.2342 207.162 24.5954 200.318 24.5954ZM200.318 60.9935C186.659 60.9935 175.96 50.7935 175.96 37.4305C175.96 24.2172 186.733 13.8674 200.488 13.8674C214.144 13.8674 224.846 24.0668 224.846 37.4305C224.846 50.6408 214.07 60.9935 200.318 60.9935Z" fill="black"/>
</svg>
