<svg width="290" height="61" viewBox="0 0 290 61" fill="none" xmlns="http://www.w3.org/2000/svg">
<path d="M121.546 13.8697C116.31 13.8697 110.355 16.3027 106.716 21.174L106.718 21.1646L106.716 21.167L106.718 14.6343H94.2289V60.2248H106.716V34.2834C106.716 29.6147 110.327 24.6512 117.014 24.6512C122.181 24.6512 127.529 28.2546 127.529 34.2834V60.2248H140.018V31.9637C140.018 21.4776 132.534 13.8697 121.546 13.8697ZM228.784 14.6367L217.493 45.6914L206.202 14.6367H191.935L210.649 60.2125H224.335L243.048 14.6367H228.784ZM56.9437 28.3709C59.0704 25.508 62.4584 23.8272 66.55 23.8272C71.0506 23.8272 74.465 26.4035 76.2302 30.2066L54.4104 39.2809C53.8146 34.624 55.0033 30.9818 56.9437 28.3709ZM80.9375 46.2082C75.6812 50.1076 72.6781 51.0378 67.8846 51.0378C63.5709 51.0378 60.1935 49.6953 57.8125 47.341L89.7418 34.0637C89.0446 29.1161 87.1711 24.6958 84.2886 21.3349C80.0933 16.4513 73.8838 13.8674 66.3233 13.8674C52.5908 13.8674 42.2357 24.0222 42.2357 37.4352C42.2357 51.1958 52.6154 61 67.7001 61C76.1517 61 84.7931 56.9849 88.8355 52.2939L80.9375 46.2082ZM41.0452 48.7299H12.6598V1H0V60.2248H41.0452V48.7299ZM265.474 24.5954C258.5 24.5954 253.435 29.8936 253.435 37.4305C253.435 44.6267 258.8 50.2655 265.642 50.2655C272.619 50.2655 277.681 44.8217 277.681 37.4305C277.681 30.2342 272.318 24.5954 265.474 24.5954ZM265.474 60.9935C251.815 60.9935 241.113 50.7935 241.113 37.4305C241.113 24.2172 251.889 13.8674 265.642 13.8674C279.3 13.8674 290 24.0668 290 37.4305C290 50.6408 279.226 60.9935 265.474 60.9935ZM169.318 24.5954C162.343 24.5954 157.281 29.8936 157.281 37.4305C157.281 44.6267 162.644 50.2655 169.488 50.2655C176.462 50.2655 181.524 44.8217 181.524 37.4305C181.524 30.2342 176.162 24.5954 169.318 24.5954ZM169.318 60.9935C155.659 60.9935 144.96 50.7935 144.96 37.4305C144.96 24.2172 155.733 13.8674 169.488 13.8674C183.144 13.8674 193.846 24.0668 193.846 37.4305C193.846 50.6408 183.07 60.9935 169.318 60.9935Z" fill="black"/>
</svg>
