<svg width="135" height="29" viewBox="0 0 135 29" fill="none" xmlns="http://www.w3.org/2000/svg">
<path d="M7.66623 22.976C2.22934 22.976 0 20.4821 0 16.5617H2.76807C2.76807 19.4218 4.45513 20.7507 7.69813 20.7507C10.2996 20.7507 11.5153 20.1507 11.5153 18.4556C11.5153 16.2966 9.25051 15.9304 6.51435 15.0968C3.33869 14.0992 0.772648 13.1366 0.772648 10.1439C0.772648 7.51753 3.03743 5.79102 6.88649 5.79102C12.1214 5.79102 13.7092 8.61622 13.7092 11.3438H10.9411C10.9411 9.115 9.55532 8.01979 6.88649 8.01979C5.0293 8.01979 3.54426 8.55344 3.54426 10.0463C3.54426 11.6402 4.6926 12.139 7.39332 13.004C10.7037 14.0678 14.2834 14.7968 14.2834 18.3545C14.2834 20.8483 12.6955 22.976 7.66268 22.976H7.66623Z" fill="white"/>
<path d="M29.984 13.3786V6.11328H31.8908C32.3693 6.11328 32.7556 6.49346 32.7556 6.96433V22.5134H30.0195V19.6534L30.459 17.7594H30.4696C29.7962 20.752 26.8793 22.8448 23.2322 22.8448C19.5852 22.8448 16.9482 20.6858 16.9482 16.0957V6.11328H18.7239C19.2733 6.11328 19.7163 6.54927 19.7163 7.0899V15.6981C19.7163 15.719 19.7163 15.7399 19.7163 15.7608C19.9148 19.1302 21.0738 20.5149 23.9694 20.5149C27.5172 20.5149 29.8352 17.7559 29.9805 13.3751L29.984 13.3786Z" fill="white"/>
<path d="M38.6631 6.94244V8.55386L38.2236 10.4478H38.0995C38.8084 7.85628 41.0377 5.79492 44.8903 5.79492C49.7531 5.79492 52.8968 9.48513 52.8968 14.4031C52.8968 19.321 49.7566 22.9799 44.8903 22.9799C41.0413 22.9799 38.8119 20.9185 38.0995 18.3584H38.2236L38.6631 20.2209V28.6966H35.895V6.12627H37.8337C38.2909 6.12627 38.6631 6.4925 38.6631 6.94244ZM44.0787 20.6499C47.5592 20.6499 50.1252 18.7211 50.1252 14.3996C50.1252 10.0781 47.5592 8.11787 44.0787 8.11787C40.5982 8.11787 38.6631 9.98042 38.6631 14.3996C38.6631 18.8188 40.6337 20.6499 44.0787 20.6499Z" fill="white"/>
<path d="M74.1938 8.08836C74.1938 6.52577 74.9381 5.76192 76.526 5.82819L85.8474 6.12815V7.55471C85.8474 8.0465 85.4327 8.44063 84.933 8.4232L76.9619 8.15463V22.6469H74.1938V8.08836Z" fill="white"/>
<path d="M88.5566 6.26429V0.830123L91.2928 0V6.26429H96.5277V7.79548C96.5277 8.23496 96.1662 8.59073 95.7196 8.59073H91.2928V20.8228L97.2046 20.4566V22.783L90.8533 23.1144C89.2655 23.2155 88.5566 22.3819 88.5566 20.8542V8.59073" fill="white"/>
<path d="M127.164 5.71484C130.407 5.71484 134.561 7.51112 135 12.2965H132.197C131.722 9.13997 129.596 8.04128 127.164 8.04128C123.177 8.04128 121.355 10.9014 121.355 14.2916C121.355 17.6819 123.18 20.5734 127.164 20.5734C129.596 20.5734 131.726 19.4747 132.197 16.3181H135C134.561 21.1035 130.407 22.8998 127.164 22.8998C121.727 22.8998 118.583 19.077 118.583 14.2916C118.583 9.5062 121.724 5.71484 127.164 5.71484Z" fill="white"/>
<path d="M63.5348 5.93164C58.0979 5.93164 54.9541 9.75439 54.9541 14.5084C54.9541 19.2624 58.0943 23.1166 63.5348 23.1166C66.7777 23.1166 70.9316 21.3203 71.3711 16.9813H68.5676C68.0927 19.6949 65.9661 20.7901 63.5348 20.7901C59.6502 20.7901 57.8179 18.0766 57.7293 14.7665H71.4916V12.7052C71.5093 12.8551 71.2258 12.5482 71.4916 12.7052C70.9458 8.08717 66.7246 5.93164 63.5348 5.93164ZM68.5995 12.7052H57.9136C58.47 10.1625 60.2811 8.25808 63.5348 8.25808C65.9661 8.25808 68.0962 9.35677 68.5676 12.5133C68.5853 12.6284 68.5995 12.7087 68.5995 12.7087V12.7052Z" fill="white"/>
<path d="M107.546 5.79102C102.11 5.79102 98.9658 9.61377 98.9658 14.3678C98.9658 19.1218 102.106 22.976 107.546 22.976C110.789 22.976 114.943 21.1797 115.383 16.8407H112.579C112.104 19.5543 109.978 20.6495 107.546 20.6495C103.662 20.6495 101.83 17.9359 101.741 14.6259H115.503V12.5645C115.521 12.7145 115.238 12.4076 115.503 12.5645C114.958 7.94654 110.736 5.79102 107.546 5.79102ZM112.611 12.568H101.925C102.482 10.0253 104.293 8.12094 107.546 8.12094C109.978 8.12094 112.108 9.21963 112.579 12.3762C112.597 12.4913 112.611 12.5715 112.611 12.5715V12.568Z" fill="white"/>
</svg>
