<svg width="481" height="103" viewBox="0 0 481 103" fill="none" xmlns="http://www.w3.org/2000/svg">
<path d="M0 24.3991V48.7891H24.39H48.78V24.3991V0.00908279H24.38H0V24.3991Z" fill="#010202"/>
<path d="M53.9099 0.269287C53.7599 0.379288 53.6499 11.3793 53.6499 24.6593V48.7793H78.0399H102.43V24.3893V-0.000732422H78.3099C65.0199 0.0092659 54.0199 0.119286 53.9099 0.269287Z" fill="#010202"/>
<path d="M445.33 16.5194C441.39 17.3794 437.23 20.3093 435.46 23.5393C433.92 26.3893 433.32 29.3194 433.32 33.8594V37.8594L429.68 37.9694L426 38.0794L425.89 42.2794L425.78 46.5194H429.57H433.32V64.3394V82.1594H438.57H443.82V64.3394V46.5194H451.51H459.2V57.8594C459.24 71.3994 459.5 73.9494 461.15 77.2894C462.54 79.9894 464.71 81.7894 467.57 82.5794C469.97 83.2194 475.19 83.1093 477.89 82.3493L480.22 81.6694V77.4694V73.2694L478.08 73.9794C474.63 75.1394 471.93 74.4294 470.58 71.9194C469.98 70.8694 469.9 69.3293 469.79 58.5993L469.68 46.5194H474.93H480.22V42.2094V37.8993H474.97H469.72V31.4794V25.0594L468.71 25.3194C468.11 25.4294 465.75 26.1494 463.46 26.8594L459.22 28.1694V33.1194V38.0694L451.49 37.9594L443.76 37.8493L443.87 33.4594C444.02 28.6594 444.51 27.2694 446.53 25.7694C447.92 24.7594 451.14 24.4893 453.36 25.2393L455.09 25.8393V21.3794C455.09 17.5894 455.01 16.9194 454.45 16.7294C453.32 16.2894 447.05 16.1794 445.33 16.5194Z" fill="#010202"/>
<path d="M211.75 20.2291C209.8 21.4291 208.86 23.0791 208.86 25.3691C208.86 29.0491 211.64 31.4091 215.65 31.0691C219.06 30.7691 221.17 28.5891 221.17 25.3291C221.17 23.0791 220.42 21.7691 218.36 20.3391C216.74 19.2591 213.43 19.1791 211.75 20.2291Z" fill="#010202"/>
<path d="M133.18 51.4092V82.1692H138.24H143.3L143.22 58.5292C143.14 45.5092 143.22 34.8892 143.33 34.8892C143.44 34.8892 147.79 45.5392 153.05 58.5292L162.58 82.1992L166.33 82.0892L170.08 81.9792L179.35 58.6092C184.45 45.7392 188.73 35.1192 188.84 35.0092C188.95 34.8592 189.07 45.4392 189.07 58.4592V82.1692H194.32H199.57V51.4092V20.6492H192.35H185.11L176.52 41.7292C171.79 53.3592 167.59 63.5992 167.22 64.4992L166.47 66.1892L163.21 57.9392C161.41 53.4392 157.36 43.1992 154.21 35.1692L148.47 20.6492H140.82H133.2V51.4092H133.18Z" fill="#010202"/>
<path d="M244.61 37.7092C236.99 39.4392 231.03 44.8792 228.48 52.5292C227.32 55.9092 227.02 63.2992 227.88 66.9392C229.23 72.6092 233.32 78.0792 238.05 80.5592C243.9 83.5992 252.64 83.8991 259.13 81.3491L261.31 80.4892L261.5 75.6892C261.61 73.0592 261.65 70.9292 261.61 70.9292C261.57 70.9292 260.45 71.5292 259.1 72.2392C252.83 75.7292 245.82 75.1292 241.73 70.8092C238.65 67.5792 237.45 62.9291 238.24 57.4491C238.99 52.2391 241.99 48.1792 246.34 46.5692C250.43 45.0292 256.24 45.7391 260 48.2991C260.71 48.7491 261.39 49.1592 261.5 49.1592C261.61 49.1592 261.65 46.9092 261.58 44.1292L261.47 39.0991L258.96 38.2692C255.68 37.1892 248.29 36.8892 244.61 37.7092Z" fill="#010202"/>
<path d="M289.26 37.5599C285.58 38.0899 282.69 40.2199 280.86 43.7899L279.92 45.5899L279.88 41.7299V37.8699L274.74 37.9799L269.56 38.0899L269.45 60.1099L269.37 82.1699H274.58H279.83L279.94 68.5499L280.05 54.9699L281.1 52.7199C282.75 49.2299 284.66 47.4699 287.52 46.9399C289.43 46.5999 292.55 47.0199 294.2 47.8799L295.25 48.4399V43.3799C295.25 39.7399 295.1 38.2399 294.8 38.0199C294.02 37.5599 291.06 37.2999 289.26 37.5599Z" fill="#010202"/>
<path d="M312.55 37.7092C304.41 39.5492 298.63 45.2492 296.57 53.4692C295.71 56.8792 295.67 63.7492 296.53 67.3092C298.29 74.7792 303.92 80.4391 311.46 82.4291C314.69 83.2591 321.25 83.2591 324.7 82.3491C331.42 80.6591 336.86 75.9292 339.18 69.8592C340.53 66.1492 341.13 62.1292 340.87 57.9692C340.49 51.1792 338.69 46.7892 334.87 42.9292C332.47 40.5692 330.74 39.4791 327.14 38.1991C324.37 37.1891 316.04 36.9292 312.55 37.7092ZM323.58 46.6792C326.09 47.8092 328.34 50.4292 329.25 53.1692C329.81 54.8992 329.96 56.4292 329.96 60.4092C329.92 64.7992 329.81 65.7691 329.06 67.6491C327.97 70.4291 326.4 72.1891 324 73.4291C322.35 74.2891 321.6 74.4092 318.71 74.4092C315 74.4092 312.97 73.7691 310.72 71.8991C307.19 68.8591 305.58 61.6191 307.08 55.2391C308.13 50.8891 310.08 48.2591 313.46 46.6891C316.12 45.4091 320.92 45.4092 323.58 46.6792Z" fill="#010202"/>
<path d="M356.9 37.71C352.47 38.95 348.53 42.06 347 45.51C345.76 48.32 345.76 53.43 347.04 56.09C348.58 59.24 350.3 60.59 356.94 63.78C360.28 65.39 363.32 67.08 363.69 67.49C364.67 68.58 364.93 71.39 364.14 72.59C362 75.85 354.05 75.52 348.08 71.88L345.9 70.57V75.63V80.66L347.25 81.22C351.41 82.95 359.44 83.51 363.83 82.38C368.67 81.14 372.23 78.52 374.03 74.84C374.78 73.26 374.93 72.4 374.93 69.4C374.93 66.47 374.82 65.57 374.14 64.3C372.26 60.74 369.86 58.94 363.11 55.9C358.16 53.72 356.81 52.56 356.51 50.31C355.8 45.17 363.56 43.67 371.14 47.5L372.94 48.44L372.83 43.64L372.72 38.88L370.47 38.17C367.4 37.19 359.64 36.93 356.9 37.71Z" fill="#010202"/>
<path d="M395.99 37.8595C390.7 39.1695 386.09 42.3595 383.38 46.5595C379.48 52.6795 378.62 62.6494 381.35 70.0494C384.73 79.0894 394.29 84.2695 405.14 82.9195C411.33 82.1695 414.71 80.6295 418.5 76.7695C423.08 72.1595 424.84 67.3895 424.84 59.6595C424.84 52.1195 423.08 47.1694 418.95 42.9994C416.17 40.2594 413.77 38.9094 409.83 37.8994C406.12 36.9294 399.74 36.9295 395.99 37.8595ZM408.04 46.7894C410.14 47.9194 412.09 50.1695 413.1 52.7595C413.81 54.6395 413.96 55.6894 413.96 59.8494C414 67.5394 412.42 71.1395 408.03 73.3595C406.04 74.3395 405.4 74.4494 402.59 74.4494C398.54 74.4094 396.02 73.4395 393.92 71.0395C391.48 68.2295 390.77 65.8995 390.73 60.4195C390.73 52.9195 392.42 49.2395 397 46.9095C399.25 45.7795 399.51 45.7495 402.93 45.8595C405.63 45.9695 406.87 46.1894 408.04 46.7894Z" fill="#010202"/>
<path d="M209.72 60.0397V82.1797H214.97H220.22L220.14 60.1197L220.03 38.0997L214.89 37.9897L209.71 37.8797V60.0397H209.72Z" fill="#010202"/>
<path d="M0 78.4196V102.81H24.39H48.78V78.4196V54.0296H24.38H0V78.4196Z" fill="#010202"/>
<path d="M53.7199 78.3096L53.8299 102.62L78.1399 102.73L102.41 102.81V78.4196V54.0296H78.0199H53.6499L53.7199 78.3096Z" fill="#010202"/>
</svg>
