<svg width="94" height="20" viewBox="0 0 94 20" fill="none" xmlns="http://www.w3.org/2000/svg">
<g clip-path="url(#clip0_173_250)">
<path d="M39.293 4.38833C37.6002 4.38833 35.675 5.18544 34.4987 6.7814L34.4994 6.77832L34.4987 6.77909L34.4994 4.63883H30.4619V19.5754H34.4987V11.0763C34.4987 9.54677 35.6661 7.9206 37.8278 7.9206C39.4983 7.9206 41.2271 9.10117 41.2271 11.0763V19.5754H45.2646V10.3164C45.2646 6.88087 42.8451 4.38833 39.293 4.38833ZM73.9602 4.6396L70.3102 14.8139L66.6602 4.6396H62.0481L68.0977 19.5714H72.522L78.5716 4.6396H73.9602ZM18.4085 9.13926C19.096 8.20131 20.1913 7.65066 21.514 7.65066C22.9689 7.65066 24.0727 8.49472 24.6434 9.74071L17.5896 12.7137C17.397 11.1879 17.7812 9.99468 18.4085 9.13926ZM26.1651 14.9832C24.4659 16.2608 23.4951 16.5655 21.9455 16.5655C20.5509 16.5655 19.4591 16.1257 18.6894 15.3544L29.0114 11.0044C28.786 9.38342 28.1803 7.93522 27.2485 6.83412C25.8922 5.23412 23.8848 4.38756 21.4407 4.38756C17.0013 4.38756 13.6538 7.71454 13.6538 12.109C13.6538 16.6173 17.0093 19.8294 21.8858 19.8294C24.618 19.8294 27.4116 18.514 28.7184 16.9771L26.1651 14.9832ZM13.2689 15.8094H4.09261V0.171875H0V19.5754H13.2689V15.8094ZM85.8214 7.90232C83.5667 7.90232 81.9294 9.63816 81.9294 12.1074C81.9294 14.4651 83.6636 16.3125 85.8756 16.3125C88.1311 16.3125 89.7674 14.529 89.7674 12.1074C89.7674 9.74975 88.0339 7.90232 85.8214 7.90232ZM85.8214 19.8273C81.4059 19.8273 77.946 16.4855 77.946 12.1074C77.946 7.77842 81.4297 4.38756 85.8756 4.38756C90.2911 4.38756 93.75 7.72916 93.75 12.1074C93.75 16.4355 90.267 19.8273 85.8214 19.8273ZM54.7364 7.90232C52.4816 7.90232 50.8453 9.63816 50.8453 12.1074C50.8453 14.4651 52.5788 16.3125 54.7913 16.3125C57.046 16.3125 58.6824 14.529 58.6824 12.1074C58.6824 9.74975 56.9489 7.90232 54.7364 7.90232ZM54.7364 19.8273C50.3208 19.8273 46.8619 16.4855 46.8619 12.1074C46.8619 7.77842 50.3447 4.38756 54.7913 4.38756C59.2061 4.38756 62.6657 7.72916 62.6657 12.1074C62.6657 16.4355 59.1822 19.8273 54.7364 19.8273Z" fill="black"/>
</g>
<defs>
<clipPath id="clip0_173_250">
<rect width="93.75" height="20" fill="white"/>
</clipPath>
</defs>
</svg>
