<svg width="116" height="117" viewBox="0 0 116 117" fill="none" xmlns="http://www.w3.org/2000/svg">
<g clip-path="url(#clip0_193_530)">
<path d="M58.8896 1.76953V115.32C90.4318 115.32 116 89.902 116 58.5449C116 27.1878 90.4318 1.76953 58.8896 1.76953Z" fill="white"/>
<path d="M3.2116 115.328C3.2116 115.297 3.2116 115.267 3.2116 115.24C3.2116 114.303 3.94555 113.515 4.89301 113.467C5.87606 113.409 6.71233 114.157 6.7657 115.134C6.7657 115.165 6.7657 115.196 6.7657 115.227C6.7657 116.16 6.0362 116.947 5.08429 116.996C5.05315 117 5.01756 117 4.98643 117C4.04786 117 3.26053 116.27 3.2116 115.328ZM12.9265 114.267C12.8953 114.134 12.882 113.997 12.882 113.869C12.882 113.06 13.438 112.335 14.2609 112.145C15.2173 111.928 16.1736 112.52 16.396 113.471C16.4272 113.608 16.4405 113.741 16.4405 113.869C16.4405 114.678 15.8845 115.404 15.0616 115.594C14.9281 115.625 14.7902 115.638 14.6612 115.638C13.8517 115.638 13.1177 115.085 12.9265 114.267ZM22.3255 111.565C22.2276 111.34 22.1831 111.105 22.1831 110.875C22.1831 110.186 22.5924 109.531 23.2685 109.248C24.1759 108.868 25.2213 109.288 25.6038 110.19C25.6972 110.415 25.7417 110.65 25.7417 110.88C25.7417 111.57 25.3325 112.224 24.6519 112.507C24.4295 112.6 24.1937 112.649 23.9624 112.649C23.2685 112.649 22.6102 112.242 22.3255 111.565ZM0 108.784C0 107.806 0.796227 107.015 1.77928 107.015C2.76233 107.015 3.55856 107.806 3.55856 108.784C3.55856 109.757 2.76233 110.553 1.77928 110.553C0.796227 110.553 0 109.757 0 108.784ZM31.1107 107.302C30.9194 107.006 30.826 106.674 30.826 106.347C30.826 105.768 31.1151 105.193 31.6445 104.857C32.4718 104.326 33.575 104.565 34.1043 105.388C34.2956 105.684 34.389 106.015 34.389 106.343C34.389 106.922 34.0999 107.497 33.5705 107.833C33.2725 108.023 32.9389 108.116 32.6097 108.116C32.0225 108.116 31.4487 107.829 31.1107 107.302ZM39.0374 101.611C38.726 101.271 38.5703 100.846 38.5703 100.422C38.5703 99.9395 38.7616 99.4619 39.1486 99.1126C39.8692 98.4493 40.999 98.5023 41.6618 99.2187C41.9732 99.5592 42.1288 99.9838 42.1288 100.408C42.1288 100.89 41.9376 101.368 41.5506 101.722C41.2081 102.031 40.781 102.186 40.3496 102.186C39.8692 102.186 39.3888 101.991 39.0374 101.611ZM0 99.0551C0 98.0778 0.796227 97.2863 1.77928 97.2863C2.76233 97.2863 3.55856 98.0778 3.55856 99.0551C3.55856 100.032 2.76233 100.824 1.77928 100.824C0.796227 100.824 0 100.032 0 99.0551ZM45.8787 94.6684C45.4294 94.319 45.1937 93.8017 45.1892 93.2798C45.1892 92.8995 45.3049 92.5104 45.5584 92.1832C46.1634 91.4137 47.2799 91.2722 48.0583 91.8692C48.5076 92.2141 48.7433 92.7315 48.7478 93.2533C48.7478 93.638 48.6277 94.0228 48.3741 94.35C48.0227 94.801 47.4978 95.0354 46.964 95.0354C46.5859 95.0354 46.2034 94.916 45.8787 94.6684ZM0 89.3265C0 88.3492 0.796227 87.5576 1.77928 87.5576C2.76233 87.5576 3.55856 88.3492 3.55856 89.3265C3.55856 90.3038 2.76233 91.0953 1.77928 91.0953C0.796227 91.0953 0 90.3038 0 89.3265ZM51.43 86.6688C50.834 86.3548 50.4915 85.749 50.487 85.1255C50.487 84.838 50.5493 84.5506 50.6961 84.2809C51.1587 83.4186 52.2351 83.0869 53.107 83.5468C53.703 83.8608 54.0456 84.4666 54.05 85.0901C54.05 85.3775 53.9877 85.6694 53.8409 85.9347C53.5251 86.5361 52.9068 86.8766 52.2707 86.8766C51.986 86.8766 51.7014 86.8103 51.4345 86.6688H51.43ZM0 79.5979C0 78.6206 0.796227 77.829 1.77928 77.829C2.76233 77.829 3.55856 78.6206 3.55856 79.5979C3.55856 80.5751 2.76233 81.3667 1.77928 81.3667C0.796227 81.3667 0 80.5751 0 79.5979ZM55.5357 77.8511C54.7884 77.6079 54.3169 76.9225 54.308 76.1884C54.308 75.9983 54.3302 75.8081 54.3925 75.618C54.6994 74.6893 55.7047 74.1808 56.6389 74.4859C57.3817 74.7247 57.8577 75.4101 57.8666 76.1486C57.8666 76.3343 57.8399 76.5289 57.7776 76.7146C57.5329 77.462 56.8346 77.9351 56.0828 77.9351C55.9005 77.9351 55.7181 77.9086 55.5357 77.8511ZM0 69.8692C0 68.8919 0.796227 68.1004 1.77928 68.1004C2.76233 68.1004 3.55856 68.8919 3.55856 69.8692C3.55856 70.8465 2.76233 71.6381 1.77928 71.6381C0.796227 71.6381 0 70.8465 0 69.8692ZM58.0489 68.4586C57.1682 68.3303 56.5321 67.583 56.5232 66.7251C56.5232 66.6367 56.5232 66.5438 56.541 66.4554C56.6833 65.4869 57.5863 64.8192 58.5605 64.9563C59.4368 65.0801 60.0773 65.8318 60.0818 66.6897C60.0818 66.7782 60.0773 66.8666 60.064 66.9595C59.935 67.8395 59.1743 68.4763 58.3069 68.4763C58.2224 68.4763 58.1379 68.4763 58.0489 68.4586ZM0 60.1406C0 59.1633 0.796227 58.3718 1.77928 58.3718C2.76233 58.3718 3.55856 59.1633 3.55856 60.1406C3.55856 61.1179 2.76233 61.9094 1.77928 61.9094C0.796227 61.9094 0 61.1179 0 60.1406ZM57.0926 57.0584C57.0926 57.0584 57.0926 57.0274 57.0926 57.0098C57.0926 56.0546 57.8621 55.2674 58.8274 55.2409C59.8104 55.2144 60.6289 55.9838 60.6556 56.9655V57.0098C60.6556 57.9649 59.8905 58.7521 58.9252 58.7786H58.8763C57.9155 58.7786 57.1237 58.018 57.1015 57.0584H57.0926ZM0 50.412C0 49.4347 0.796227 48.6431 1.77928 48.6431C2.76233 48.6431 3.55856 49.4347 3.55856 50.412C3.55856 51.3848 2.76233 52.1808 1.77928 52.1808C0.796227 52.1808 0 51.3848 0 50.412ZM56.0384 47.7056C56.0117 47.5863 56.0028 47.4624 56.0028 47.3475C56.0028 46.5249 56.5899 45.7909 57.4306 45.6228C58.3959 45.4327 59.3345 46.0518 59.5257 47.0114C59.5524 47.1308 59.5613 47.2502 59.5613 47.3696C59.5569 48.1921 58.9742 48.9262 58.129 49.0898C58.0133 49.1163 57.8977 49.1251 57.782 49.1251C56.9502 49.1251 56.2074 48.5458 56.0384 47.7056ZM0 40.6833C0 39.7061 0.796227 38.9145 1.77928 38.9145C2.76233 38.9145 3.55856 39.7061 3.55856 40.6833C3.55856 41.6606 2.76233 42.4522 1.77928 42.4522C0.796227 42.4522 0 41.6606 0 40.6833ZM53.3872 38.6669C53.3072 38.4546 53.2671 38.2335 53.2671 38.0168C53.2671 37.3093 53.703 36.646 54.4059 36.3762C55.3222 36.0225 56.3497 36.4735 56.7056 37.3845C56.7901 37.6011 56.8301 37.8178 56.8257 38.0345C56.8257 38.742 56.3942 39.4054 55.6914 39.6751C55.4779 39.7591 55.2644 39.7945 55.0464 39.7945C54.3347 39.7945 53.663 39.3656 53.3872 38.6669ZM0 30.9547C0 29.973 0.796227 29.1815 1.77928 29.1815C2.76233 29.1815 3.55856 29.973 3.55856 30.9547C3.55856 31.9276 2.76233 32.7191 1.77928 32.7191C0.796227 32.7191 0 31.9276 0 30.9547ZM49.2193 30.2118C49.0458 29.9288 48.9613 29.6104 48.9657 29.2964C48.9657 28.6994 49.2726 28.1157 49.8242 27.7885C50.6649 27.2844 51.7592 27.5541 52.2663 28.3899C52.4442 28.6773 52.5243 28.9957 52.5243 29.3097C52.5243 29.9067 52.2129 30.486 51.6613 30.8176C51.3722 30.9901 51.0564 31.0697 50.745 31.0697C50.14 31.0697 49.5529 30.7646 49.2193 30.2118ZM43.659 22.5925C43.3699 22.2564 43.2276 21.8452 43.2276 21.4339C43.2276 20.9387 43.4366 20.4478 43.8414 20.0985C44.5842 19.4573 45.7096 19.5413 46.3502 20.2798C46.6438 20.6158 46.7861 21.0271 46.7861 21.4384C46.7861 21.9336 46.577 22.4245 46.1723 22.7738C45.8342 23.0613 45.4205 23.2072 45.0068 23.2072C44.5086 23.2072 44.0104 22.9994 43.659 22.5925ZM0 21.2261C0 20.2488 0.796227 19.4573 1.77928 19.4573C2.76233 19.4573 3.55856 20.2488 3.55856 21.2261C3.55856 22.2034 2.76233 22.9949 1.77928 22.9949C0.796227 22.9949 0 22.2034 0 21.2261ZM36.88 16.0213C36.453 15.6719 36.2305 15.1634 36.2305 14.6548C36.2305 14.2613 36.364 13.8589 36.6353 13.5316C37.2581 12.7755 38.379 12.6649 39.1397 13.2884C39.5667 13.6333 39.7891 14.1419 39.7891 14.6504C39.7891 15.044 39.6601 15.4464 39.3843 15.7736C39.0329 16.2026 38.5214 16.4237 38.0098 16.4237C37.6139 16.4237 37.2136 16.291 36.88 16.0213ZM0 11.4975C0 10.5202 0.796227 9.72863 1.77928 9.72863C2.76233 9.72863 3.55856 10.5202 3.55856 11.4975C3.55856 12.4748 2.76233 13.2663 1.77928 13.2663C0.796227 13.2663 0 12.4748 0 11.4975ZM29.0823 10.6882C28.5085 10.3654 28.1838 9.76843 28.1793 9.15818C28.1793 8.85747 28.2549 8.55235 28.4151 8.27375C28.8999 7.42471 29.9853 7.12843 30.8393 7.61044C31.4131 7.93325 31.7379 8.53024 31.7423 9.14049C31.7423 9.44119 31.6667 9.74189 31.5066 10.0249C31.1818 10.5954 30.5769 10.9182 29.9586 10.9182C29.6606 10.9182 29.3581 10.843 29.0823 10.6882ZM20.4839 6.75697C19.7633 6.50049 19.3096 5.82391 19.3052 5.10311C19.3052 4.90411 19.3407 4.69627 19.4119 4.49728C19.7455 3.57748 20.7642 3.09989 21.6894 3.42713C22.41 3.68803 22.8637 4.36019 22.8637 5.081C22.8637 5.28441 22.8326 5.49225 22.7614 5.69125C22.499 6.41205 21.8139 6.8631 21.0844 6.8631C20.8843 6.8631 20.6841 6.82773 20.4839 6.75697ZM11.334 4.35135C10.471 4.20542 9.86609 3.46251 9.86165 2.62231C9.86165 2.51618 9.87054 2.41005 9.88834 2.30834C10.0574 1.34432 10.9781 0.698692 11.9434 0.866732H11.9478C12.8064 1.01708 13.4158 1.76 13.4202 2.6002C13.4202 2.70633 13.4113 2.80804 13.3935 2.91417C13.2423 3.77205 12.4905 4.37788 11.6409 4.37788C11.5386 4.37788 11.4363 4.36904 11.334 4.35135ZM1.90383 3.53768C1.88159 3.53768 1.86379 3.53768 1.84155 3.53326C1.84155 3.53326 1.80152 3.53768 1.77928 3.53768C0.796227 3.53768 0 2.74613 0 1.76884C0 0.791556 0.796227 0 1.77928 0H1.91272C2.89133 0 3.68755 0.795979 3.6831 1.77326C3.6831 2.74613 2.88688 3.53768 1.90383 3.53768Z" fill="#E3EC42"/>
</g>
<defs>
<clipPath id="clip0_193_530">
<rect width="116" height="117" fill="white"/>
</clipPath>
</defs>
</svg>
