<svg width="108" height="108" viewBox="0 0 108 108" fill="none" xmlns="http://www.w3.org/2000/svg">
<g clip-path="url(#clip0_193_503)">
<path d="M108 61.9199H61.6118V107.999H108V61.9199Z" fill="white"/>
<path d="M3.42501 6.80445C5.3166 6.80445 6.85003 5.28122 6.85003 3.40223C6.85003 1.52323 5.3166 0 3.42501 0C1.53343 0 0 1.52323 0 3.40223C0 5.28122 1.53343 6.80445 3.42501 6.80445Z" fill="#E3EC42"/>
<path d="M23.1941 6.80445C25.0856 6.80445 26.6191 5.28122 26.6191 3.40223C26.6191 1.52323 25.0856 0 23.1941 0C21.3025 0 19.769 1.52323 19.769 3.40223C19.769 5.28122 21.3025 6.80445 23.1941 6.80445Z" fill="#E3EC42"/>
<path d="M42.9631 6.80445C44.8547 6.80445 46.3881 5.28122 46.3881 3.40223C46.3881 1.52323 44.8547 0 42.9631 0C41.0715 0 39.5381 1.52323 39.5381 3.40223C39.5381 5.28122 41.0715 6.80445 42.9631 6.80445Z" fill="#E3EC42"/>
<path d="M62.7321 6.80445C64.6237 6.80445 66.1572 5.28122 66.1572 3.40223C66.1572 1.52323 64.6237 0 62.7321 0C60.8406 0 59.3071 1.52323 59.3071 3.40223C59.3071 5.28122 60.8406 6.80445 62.7321 6.80445Z" fill="#E3EC42"/>
<path d="M82.5012 6.80445C84.3928 6.80445 85.9262 5.28122 85.9262 3.40223C85.9262 1.52323 84.3928 0 82.5012 0C80.6096 0 79.0762 1.52323 79.0762 3.40223C79.0762 5.28122 80.6096 6.80445 82.5012 6.80445Z" fill="#E3EC42"/>
<path d="M3.42501 26.4412C5.3166 26.4412 6.85003 24.9179 6.85003 23.0389C6.85003 21.1599 5.3166 19.6367 3.42501 19.6367C1.53343 19.6367 0 21.1599 0 23.0389C0 24.9179 1.53343 26.4412 3.42501 26.4412Z" fill="#E3EC42"/>
<path d="M23.1941 26.4412C25.0856 26.4412 26.6191 24.9179 26.6191 23.0389C26.6191 21.1599 25.0856 19.6367 23.1941 19.6367C21.3025 19.6367 19.769 21.1599 19.769 23.0389C19.769 24.9179 21.3025 26.4412 23.1941 26.4412Z" fill="#E3EC42"/>
<path d="M42.9631 26.4412C44.8547 26.4412 46.3881 24.9179 46.3881 23.0389C46.3881 21.1599 44.8547 19.6367 42.9631 19.6367C41.0715 19.6367 39.5381 21.1599 39.5381 23.0389C39.5381 24.9179 41.0715 26.4412 42.9631 26.4412Z" fill="#E3EC42"/>
<path d="M62.7321 26.4412C64.6237 26.4412 66.1572 24.9179 66.1572 23.0389C66.1572 21.1599 64.6237 19.6367 62.7321 19.6367C60.8406 19.6367 59.3071 21.1599 59.3071 23.0389C59.3071 24.9179 60.8406 26.4412 62.7321 26.4412Z" fill="#E3EC42"/>
<path d="M82.5012 26.4412C84.3928 26.4412 85.9262 24.9179 85.9262 23.0389C85.9262 21.1599 84.3928 19.6367 82.5012 19.6367C80.6096 19.6367 79.0762 21.1599 79.0762 23.0389C79.0762 24.9179 80.6096 26.4412 82.5012 26.4412Z" fill="#E3EC42"/>
<path d="M3.42501 46.0798C5.3166 46.0798 6.85003 44.5566 6.85003 42.6776C6.85003 40.7986 5.3166 39.2754 3.42501 39.2754C1.53343 39.2754 0 40.7986 0 42.6776C0 44.5566 1.53343 46.0798 3.42501 46.0798Z" fill="#E3EC42"/>
<path d="M23.1941 46.0798C25.0856 46.0798 26.6191 44.5566 26.6191 42.6776C26.6191 40.7986 25.0856 39.2754 23.1941 39.2754C21.3025 39.2754 19.769 40.7986 19.769 42.6776C19.769 44.5566 21.3025 46.0798 23.1941 46.0798Z" fill="#E3EC42"/>
<path d="M42.9631 46.0798C44.8547 46.0798 46.3881 44.5566 46.3881 42.6776C46.3881 40.7986 44.8547 39.2754 42.9631 39.2754C41.0715 39.2754 39.5381 40.7986 39.5381 42.6776C39.5381 44.5566 41.0715 46.0798 42.9631 46.0798Z" fill="#E3EC42"/>
<path d="M62.7321 46.0798C64.6237 46.0798 66.1572 44.5566 66.1572 42.6776C66.1572 40.7986 64.6237 39.2754 62.7321 39.2754C60.8406 39.2754 59.3071 40.7986 59.3071 42.6776C59.3071 44.5566 60.8406 46.0798 62.7321 46.0798Z" fill="#E3EC42"/>
<path d="M82.5012 46.0798C84.3928 46.0798 85.9262 44.5566 85.9262 42.6776C85.9262 40.7986 84.3928 39.2754 82.5012 39.2754C80.6096 39.2754 79.0762 40.7986 79.0762 42.6776C79.0762 44.5566 80.6096 46.0798 82.5012 46.0798Z" fill="#E3EC42"/>
<path d="M3.42501 65.7166C5.3166 65.7166 6.85003 64.1933 6.85003 62.3143C6.85003 60.4353 5.3166 58.9121 3.42501 58.9121C1.53343 58.9121 0 60.4353 0 62.3143C0 64.1933 1.53343 65.7166 3.42501 65.7166Z" fill="#E3EC42"/>
<path d="M23.1941 65.7166C25.0856 65.7166 26.6191 64.1933 26.6191 62.3143C26.6191 60.4353 25.0856 58.9121 23.1941 58.9121C21.3025 58.9121 19.769 60.4353 19.769 62.3143C19.769 64.1933 21.3025 65.7166 23.1941 65.7166Z" fill="#E3EC42"/>
<path d="M42.9631 65.7166C44.8547 65.7166 46.3881 64.1933 46.3881 62.3143C46.3881 60.4353 44.8547 58.9121 42.9631 58.9121C41.0715 58.9121 39.5381 60.4353 39.5381 62.3143C39.5381 64.1933 41.0715 65.7166 42.9631 65.7166Z" fill="#E3EC42"/>
<path d="M62.7321 65.7166C64.6237 65.7166 66.1572 64.1933 66.1572 62.3143C66.1572 60.4353 64.6237 58.9121 62.7321 58.9121C60.8406 58.9121 59.3071 60.4353 59.3071 62.3143C59.3071 64.1933 60.8406 65.7166 62.7321 65.7166Z" fill="#E3EC42"/>
<path d="M82.5012 65.7166C84.3928 65.7166 85.9262 64.1933 85.9262 62.3143C85.9262 60.4353 84.3928 58.9121 82.5012 58.9121C80.6096 58.9121 79.0762 60.4353 79.0762 62.3143C79.0762 64.1933 80.6096 65.7166 82.5012 65.7166Z" fill="#E3EC42"/>
<path d="M3.42501 85.3552C5.3166 85.3552 6.85003 83.832 6.85003 81.953C6.85003 80.074 5.3166 78.5508 3.42501 78.5508C1.53343 78.5508 0 80.074 0 81.953C0 83.832 1.53343 85.3552 3.42501 85.3552Z" fill="#E3EC42"/>
<path d="M23.1941 85.3552C25.0856 85.3552 26.6191 83.832 26.6191 81.953C26.6191 80.074 25.0856 78.5508 23.1941 78.5508C21.3025 78.5508 19.769 80.074 19.769 81.953C19.769 83.832 21.3025 85.3552 23.1941 85.3552Z" fill="#E3EC42"/>
<path d="M42.9631 85.3552C44.8547 85.3552 46.3881 83.832 46.3881 81.953C46.3881 80.074 44.8547 78.5508 42.9631 78.5508C41.0715 78.5508 39.5381 80.074 39.5381 81.953C39.5381 83.832 41.0715 85.3552 42.9631 85.3552Z" fill="#E3EC42"/>
<path d="M62.7321 85.3552C64.6237 85.3552 66.1572 83.832 66.1572 81.953C66.1572 80.074 64.6237 78.5508 62.7321 78.5508C60.8406 78.5508 59.3071 80.074 59.3071 81.953C59.3071 83.832 60.8406 85.3552 62.7321 85.3552Z" fill="#E3EC42"/>
<path d="M82.5012 85.3552C84.3928 85.3552 85.9262 83.832 85.9262 81.953C85.9262 80.074 84.3928 78.5508 82.5012 78.5508C80.6096 78.5508 79.0762 80.074 79.0762 81.953C79.0762 83.832 80.6096 85.3552 82.5012 85.3552Z" fill="#E3EC42"/>
</g>
<defs>
<clipPath id="clip0_193_503">
<rect width="108" height="108" fill="white"/>
</clipPath>
</defs>
</svg>
