<svg width="149" height="150" viewBox="0 0 149 150" fill="none" xmlns="http://www.w3.org/2000/svg">
<g clip-path="url(#clip0_193_465)">
<path d="M118.298 149.994C135.254 149.994 149 136.3 149 119.408C149 102.516 135.254 88.8223 118.298 88.8223C101.342 88.8223 87.5962 102.516 87.5962 119.408C87.5962 136.3 101.342 149.994 118.298 149.994Z" fill="white"/>
<path d="M62.9113 91.2763C61.5651 91.2578 60.4795 90.1701 60.4671 88.8351V88.7733C60.4857 87.4075 61.6148 86.3136 62.9858 86.3383C64.332 86.3569 65.4176 87.4446 65.43 88.7795V88.8413C65.4114 90.1948 64.301 91.2763 62.9486 91.2763H62.9113ZM73.8546 86.7153C73.6375 86.326 73.532 85.8995 73.5382 85.4793C73.5444 84.6264 73.9973 83.7983 74.7976 83.3471C75.9887 82.6735 77.5024 83.0937 78.1786 84.2803C78.4019 84.6697 78.5012 85.0961 78.5012 85.5164C78.5012 86.3692 78.0421 87.1974 77.2418 87.6485C76.851 87.8648 76.4354 87.9699 76.0197 87.9699C75.1512 87.9699 74.3137 87.5187 73.8546 86.7153ZM48.6987 87.2159C47.9295 86.7524 47.5076 85.9428 47.5014 85.1023C47.5014 84.6697 47.6193 84.2247 47.8612 83.823C48.5746 82.6549 50.1007 82.2841 51.2732 82.9886C52.0425 83.4522 52.4643 84.268 52.4643 85.1023C52.4643 85.5411 52.3527 85.9861 52.1107 86.3878C51.6393 87.1541 50.8204 87.5744 49.9829 87.5744C49.5424 87.5744 49.1019 87.4631 48.6987 87.2159ZM84.3761 78.2052C83.5758 77.7416 83.1353 76.9011 83.1415 76.0483C83.1415 75.628 83.2594 75.2078 83.4828 74.8184C84.1776 73.6442 85.6975 73.2486 86.8824 73.9346C87.6764 74.3982 88.1169 75.2325 88.1107 76.0915C88.1107 76.5118 87.9928 76.932 87.7695 77.3214C87.3042 78.1063 86.4729 78.5451 85.623 78.5451C85.2012 78.5451 84.7669 78.4338 84.3761 78.2052ZM38.4874 76.5736C38.2827 76.1966 38.1835 75.7949 38.1835 75.3932C38.1835 74.5218 38.6487 73.6689 39.48 73.2177C40.6835 72.5688 42.191 73.0076 42.8424 74.2066C43.0534 74.5836 43.1464 74.9853 43.1464 75.387C43.1464 76.2584 42.6811 77.1113 41.856 77.5624C41.4776 77.7664 41.0682 77.8652 40.6649 77.8652C39.7902 77.8652 38.9403 77.3956 38.4874 76.5736ZM86.6652 63.1007C86.6652 61.7349 87.7757 60.6286 89.1467 60.6286C90.5177 60.6286 91.6282 61.7349 91.6282 63.1007C91.6282 64.4665 90.5177 65.5728 89.1467 65.5728C87.7757 65.5728 86.6652 64.4665 86.6652 63.1007ZM37.47 64.7941C36.1238 64.7508 35.0568 63.6446 35.063 62.3097V62.2479C35.1064 60.882 36.2479 59.8128 37.6189 59.8499C38.9651 59.8932 40.0322 60.9933 40.026 62.3282V62.3962C39.9887 63.7373 38.8845 64.7941 37.5445 64.7941H37.47ZM84.1651 52.6191C83.979 52.2544 83.8922 51.8713 83.8922 51.4943C83.8922 50.592 84.3947 49.7267 85.257 49.2941C86.4791 48.6761 87.968 49.1643 88.5884 50.3818C88.7745 50.7465 88.8613 51.1296 88.8551 51.5128C88.8551 52.4089 88.3588 53.2742 87.4965 53.7068C87.1367 53.886 86.7521 53.9725 86.3799 53.9725C85.4741 53.9725 84.5994 53.4781 84.1651 52.6191ZM40.1376 51.5623C39.3994 51.0987 38.9837 50.3015 38.9775 49.4857C38.9775 49.0346 39.0954 48.571 39.356 48.1508C40.0818 46.9951 41.6141 46.649 42.7742 47.3721C43.5186 47.8356 43.9281 48.6267 43.9405 49.4424C43.9467 49.8998 43.8226 50.3633 43.5621 50.7774C43.0906 51.5252 42.2779 51.9393 41.4528 51.9393C41.0061 51.9393 40.5471 51.8156 40.1376 51.5623ZM76.0073 43.5836C75.2691 43.1139 74.872 42.3105 74.872 41.4947C74.872 41.0374 75.0085 40.58 75.2753 40.1659C76.0197 39.0226 77.5582 38.6951 78.7059 39.4367C79.4442 39.9126 79.8412 40.7098 79.8412 41.5256C79.8412 41.9829 79.7047 42.4464 79.4379 42.8543C78.9665 43.5836 78.1662 43.9853 77.3535 43.9853C76.8944 43.9853 76.423 43.8555 76.0073 43.5836ZM49.1516 41.4823C48.9655 41.1239 48.8724 40.7407 48.8662 40.3575C48.8538 39.4614 49.3377 38.59 50.1938 38.145C51.4097 37.5085 52.9048 37.972 53.5438 39.1833C53.7361 39.5417 53.8229 39.9249 53.8291 40.3019C53.8416 41.198 53.3577 42.0695 52.5016 42.5206C52.1355 42.7122 51.7385 42.8049 51.3477 42.8049C50.4605 42.8049 49.5982 42.3228 49.1516 41.4823ZM64.4002 39.8878C63.0788 39.8322 62.0366 38.7445 62.0304 37.4343V37.3107C62.0925 35.9449 63.2525 34.888 64.6236 34.9498C65.9511 35.0055 66.9872 36.0932 66.9934 37.4034V37.527C66.9313 38.8557 65.8333 39.894 64.5119 39.894C64.4747 39.894 64.4374 39.894 64.4002 39.894V39.8878Z" fill="#E3EC42"/>
<path d="M63.1845 108.741C61.8073 108.741 60.703 107.622 60.7092 106.262C60.7092 104.897 61.8259 103.79 63.1969 103.797C64.5679 103.797 65.6722 104.909 65.6722 106.275C65.6722 107.641 64.5555 108.741 63.1907 108.741H63.1845ZM74.2581 104.958C74.1774 104.717 74.1402 104.47 74.134 104.229C74.134 103.172 74.7978 102.19 75.8586 101.85C77.1614 101.429 78.5634 102.146 78.9791 103.444C79.0597 103.691 79.097 103.939 79.097 104.18C79.1094 105.23 78.4394 106.219 77.3785 106.559C77.1242 106.639 76.8698 106.676 76.6155 106.676C75.5671 106.676 74.5931 106.009 74.2581 104.958ZM48.9967 106.46C47.9607 106.12 47.3031 105.162 47.2907 104.13C47.2907 103.871 47.3279 103.599 47.4148 103.339C47.849 102.041 49.2448 101.337 50.5476 101.763C51.5836 102.103 52.2412 103.061 52.2536 104.087C52.2536 104.353 52.2102 104.618 52.1233 104.884C51.7821 105.923 50.8082 106.584 49.7659 106.584C49.5116 106.584 49.251 106.541 48.9905 106.46H48.9967ZM86.7275 99.5322C86.4111 99.0995 86.2622 98.5989 86.256 98.1045C86.256 97.332 86.6034 96.5657 87.2796 96.0774C88.3901 95.2802 89.941 95.5212 90.7475 96.6275C91.0576 97.0601 91.2127 97.5607 91.2189 98.0551C91.2251 98.8276 90.8715 99.594 90.1953 100.082C89.7549 100.397 89.2462 100.552 88.7375 100.552C87.9682 100.552 87.2114 100.2 86.7275 99.5322ZM36.2295 99.8906C35.5719 99.4147 35.2245 98.6731 35.2183 97.9191C35.2183 97.4062 35.3672 96.887 35.7022 96.4359C36.5087 95.3358 38.0658 95.1009 39.1701 95.9106C39.8214 96.3926 40.1751 97.1281 40.1813 97.882C40.1813 98.4012 40.0262 98.9203 39.6974 99.3653C39.2135 100.027 38.4566 100.373 37.6998 100.373C37.1849 100.373 36.67 100.218 36.2295 99.8906ZM96.9015 90.5214C96.2439 90.0393 95.8903 89.3039 95.8779 88.5499C95.8779 88.037 96.033 87.5116 96.3556 87.0667C97.1683 85.9666 98.7192 85.7194 99.8235 86.529C100.481 87.0049 100.835 87.7465 100.847 88.4943C100.847 89.0134 100.698 89.5326 100.369 89.9837C99.8793 90.645 99.1286 90.9973 98.3594 90.9973C97.8507 90.9973 97.342 90.8428 96.9015 90.5214ZM26.1237 89.7242C25.8135 89.2915 25.6584 88.7909 25.6584 88.2965C25.6584 87.524 26.0121 86.7577 26.6883 86.2694C27.8049 85.4783 29.3558 85.7256 30.1499 86.838C30.4663 87.2706 30.6214 87.7712 30.6214 88.2656C30.6214 89.0382 30.2678 89.7983 29.5916 90.2866C29.1511 90.6017 28.6424 90.7501 28.1399 90.7501C27.3707 90.7501 26.6076 90.3978 26.1237 89.7242ZM103.788 78.8223C102.745 78.4885 102.082 77.5306 102.069 76.4985C102.069 76.2389 102.106 75.9732 102.193 75.7074C102.621 74.4096 104.017 73.6989 105.32 74.1191C106.381 74.4652 107.051 75.4479 107.038 76.5047C107.038 76.7457 106.995 76.9929 106.914 77.2401C106.573 78.2784 105.599 78.9459 104.551 78.9459C104.296 78.9459 104.042 78.9088 103.788 78.8223ZM19.6719 76.9311C19.5912 76.6901 19.554 76.4429 19.554 76.1957C19.554 75.145 20.224 74.1624 21.2848 73.8286C22.5876 73.4146 23.9834 74.1377 24.3991 75.4355C24.4797 75.6827 24.517 75.9299 24.517 76.1709C24.517 77.2278 23.847 78.2042 22.7861 78.5441C22.538 78.6183 22.2836 78.6554 22.0355 78.6554C20.9809 78.6554 20.0069 77.9879 19.6719 76.9311ZM104.191 63.0998C104.191 61.734 105.301 60.6277 106.672 60.6277C108.043 60.6277 109.154 61.734 109.154 63.0998C109.154 64.4656 108.043 65.5719 106.672 65.5719C105.301 65.5719 104.191 64.4656 104.191 63.0998ZM19.9945 65.269C18.6235 65.269 17.5192 64.1504 17.5254 62.7846C17.5378 61.4188 18.6545 60.3187 20.0255 60.3311C21.3965 60.3311 22.5008 61.4497 22.4946 62.8155C22.4822 64.1751 21.3717 65.269 20.0131 65.269H19.9945ZM102.367 51.0298C102.293 50.7888 102.255 50.5416 102.255 50.3006C102.255 49.2437 102.938 48.2673 103.999 47.9397C105.308 47.5318 106.697 48.2611 107.107 49.5651C107.181 49.8123 107.218 50.0595 107.218 50.3006C107.218 51.3574 106.536 52.3339 105.469 52.6614C105.227 52.7356 104.979 52.7726 104.737 52.7726C103.676 52.7726 102.696 52.0928 102.367 51.0298ZM21.4399 51.79C20.3977 51.4439 19.7401 50.486 19.7401 49.4539C19.7401 49.1943 19.7774 48.9224 19.8642 48.6628C20.2985 47.365 21.7067 46.6666 23.0033 47.0992C24.0393 47.4453 24.6969 48.4032 24.7031 49.4292C24.7031 49.6949 24.6659 49.9606 24.5728 50.2264C24.2254 51.2647 23.2576 51.9198 22.2216 51.9198C21.961 51.9198 21.6943 51.8765 21.4399 51.79ZM96.6906 39.5902C96.3804 39.1576 96.2315 38.657 96.2315 38.1626C96.2315 37.3901 96.5975 36.6299 97.2799 36.1479C98.3966 35.3568 99.9475 35.6164 100.735 36.735C101.046 37.1676 101.194 37.6682 101.188 38.1626C101.188 38.9351 100.828 39.7015 100.146 40.1835C99.7056 40.4864 99.2093 40.6347 98.713 40.6347C97.9313 40.6347 97.1683 40.2701 96.6844 39.5902H96.6906ZM27.017 39.4234C26.3657 38.9413 26.0183 38.1997 26.0121 37.4457C26.0121 36.9266 26.1671 36.4074 26.5021 35.9625C27.3148 34.8686 28.872 34.6337 29.97 35.4495C30.6276 35.9316 30.975 36.6732 30.975 37.4272C30.975 37.9401 30.8199 38.4593 30.4911 38.9042C30.001 39.5593 29.2504 39.9054 28.4935 39.9054C27.9786 39.9054 27.4637 39.7509 27.017 39.4234ZM87.7387 30.4559C87.0873 29.9738 86.7399 29.2322 86.7399 28.4782C86.7399 27.9591 86.9012 27.4399 87.2362 26.995C88.0551 25.9011 89.606 25.6786 90.704 26.4944C91.3554 26.9764 91.7028 27.7181 91.7028 28.472C91.7028 28.9912 91.5477 29.5103 91.2127 29.9553C90.7226 30.6042 89.9782 30.9503 89.2214 30.9503C88.7065 30.9503 88.1853 30.7896 87.7387 30.4559ZM36.1675 29.3805C35.8573 28.9479 35.7084 28.4473 35.7022 27.9529C35.7022 27.1804 36.062 26.414 36.7444 25.932C37.8611 25.1409 39.4058 25.4005 40.2061 26.5067C40.5163 26.9455 40.6651 27.4399 40.6651 27.9405C40.6651 28.7131 40.3115 29.4732 39.6291 29.9553C39.1949 30.2705 38.6862 30.4188 38.1899 30.4188C37.4144 30.4188 36.6514 30.0604 36.1675 29.3805ZM76.3984 24.5291C75.3623 24.1768 74.7109 23.2189 74.7109 22.1868C74.7109 21.9272 74.7482 21.6553 74.8412 21.3957C75.2755 20.0978 76.6837 19.4057 77.9865 19.8383C79.0163 20.1905 79.6739 21.1485 79.6739 22.1806C79.6739 22.4463 79.6305 22.7121 79.5436 22.9716C79.19 24.0037 78.2284 24.6588 77.1924 24.6588C76.9257 24.6588 76.6589 24.6156 76.3984 24.5291ZM47.9793 22.6441C47.9048 22.4031 47.8676 22.1559 47.8676 21.9087C47.8676 20.858 48.5438 19.8815 49.6047 19.5478C50.9136 19.1399 52.3033 19.863 52.7127 21.167C52.7933 21.4081 52.8306 21.6553 52.8306 21.9025C52.8306 22.9531 52.1544 23.9296 51.0935 24.2633C50.8516 24.3437 50.5972 24.3807 50.3553 24.3807C49.3007 24.3807 48.3205 23.7009 47.9855 22.6441H47.9793ZM63.7677 22.4031C62.4028 22.3907 61.2986 21.2721 61.3172 19.9063C61.3296 18.5404 62.4525 17.4465 63.8235 17.4651C65.1883 17.4713 66.2926 18.5961 66.2739 19.9557C66.2615 21.3154 65.1573 22.4092 63.7987 22.4092C63.7987 22.4092 63.7801 22.4092 63.7739 22.4092L63.7677 22.4031Z" fill="#E3EC42"/>
<path d="M60.9574 123.728C60.9512 122.368 62.0616 121.256 63.4326 121.256C64.8036 121.256 65.9141 122.356 65.9203 123.722C65.9203 125.088 64.8099 126.194 63.4388 126.2C62.0678 126.2 60.9574 125.094 60.9574 123.728ZM49.3565 124.655C48.2088 124.402 47.4271 123.388 47.4209 122.257C47.4209 122.078 47.4395 121.886 47.483 121.701C47.7807 120.372 49.1145 119.532 50.4483 119.834C51.596 120.094 52.3777 121.107 52.3839 122.232C52.3839 122.418 52.3653 122.603 52.3218 122.788C52.0675 123.938 51.0377 124.717 49.9086 124.717C49.7225 124.717 49.5426 124.698 49.3565 124.655ZM74.5434 122.751C74.5 122.566 74.4814 122.381 74.4814 122.195C74.4814 121.07 75.2631 120.051 76.4107 119.791C77.7507 119.488 79.0783 120.323 79.3823 121.651C79.4257 121.837 79.4443 122.028 79.4443 122.208C79.4443 123.332 78.6689 124.352 77.515 124.612C77.3289 124.655 77.149 124.673 76.9629 124.673C75.8338 124.673 74.8102 123.901 74.5434 122.751ZM35.9627 120.02C35.0694 119.593 34.5545 118.71 34.5483 117.789C34.5483 117.43 34.6289 117.066 34.7964 116.72C35.3858 115.49 36.8747 114.971 38.1092 115.558C38.9963 115.984 39.5112 116.868 39.5174 117.789C39.5174 118.147 39.4368 118.512 39.2693 118.858C38.8412 119.748 37.9541 120.261 37.0298 120.261C36.67 120.261 36.3039 120.187 35.9565 120.02H35.9627ZM87.5774 118.784C87.4099 118.438 87.3292 118.073 87.3292 117.715C87.3292 116.794 87.8441 115.91 88.7312 115.483C89.9596 114.884 91.4485 115.403 92.044 116.633C92.2115 116.973 92.2922 117.344 92.2922 117.702C92.2922 118.623 91.7772 119.507 90.8901 119.933C90.5427 120.1 90.1767 120.18 89.8107 120.18C88.8925 120.18 88.0054 119.667 87.5774 118.784ZM23.9524 112.523C23.3382 112.029 23.0157 111.299 23.0157 110.57C23.0157 110.033 23.1956 109.501 23.5554 109.05C24.4115 107.981 25.9686 107.801 27.0418 108.648C27.6622 109.143 27.9848 109.866 27.9786 110.601C27.9786 111.133 27.7987 111.67 27.4451 112.121C26.955 112.739 26.2292 113.061 25.4971 113.061C24.9574 113.061 24.4115 112.882 23.9524 112.523ZM99.3892 112.016C99.0232 111.565 98.8494 111.028 98.8432 110.496C98.8432 109.761 99.1534 109.031 99.7738 108.543C100.847 107.69 102.404 107.863 103.26 108.926C103.62 109.377 103.8 109.915 103.806 110.447C103.812 111.182 103.49 111.911 102.876 112.406C102.417 112.764 101.871 112.943 101.325 112.943C100.599 112.943 99.8731 112.622 99.3892 112.016ZM13.9149 102.561C13.555 102.116 13.3751 101.578 13.3689 101.047C13.3627 100.311 13.6791 99.5818 14.2933 99.0874C15.3603 98.2345 16.9236 98.4014 17.786 99.4705C18.1458 99.9217 18.3257 100.453 18.3319 100.991C18.3319 101.72 18.0217 102.449 17.4013 102.944C16.9423 103.308 16.3963 103.488 15.8504 103.488C15.1246 103.488 14.4049 103.172 13.9149 102.561ZM109.396 102.808C108.775 102.313 108.459 101.584 108.465 100.855C108.465 100.317 108.645 99.7796 109.005 99.3284C109.861 98.2654 111.424 98.0862 112.491 98.939C113.112 99.4335 113.434 100.157 113.428 100.892C113.422 101.423 113.248 101.961 112.888 102.412C112.398 103.024 111.672 103.346 110.947 103.346C110.401 103.346 109.855 103.166 109.396 102.808ZM6.33396 90.639C6.16646 90.2929 6.08581 89.9283 6.08581 89.5698C6.08581 88.649 6.59451 87.7652 7.48164 87.3326C8.71617 86.7393 10.1989 87.2461 10.8006 88.4759C10.9681 88.822 11.0488 89.1867 11.0488 89.5451C11.0488 90.466 10.5401 91.3497 9.65293 91.7824C9.30552 91.9492 8.9333 92.0296 8.56728 92.0296C7.64914 92.0296 6.76822 91.5166 6.33396 90.639ZM117.119 91.6155C116.226 91.1891 115.711 90.3053 115.711 89.3844C115.711 89.026 115.792 88.6614 115.959 88.3153C116.555 87.0854 118.037 86.5663 119.272 87.1596C120.159 87.586 120.674 88.4698 120.674 89.3906C120.674 89.7491 120.593 90.1137 120.432 90.4598C120.004 91.3436 119.117 91.8627 118.193 91.8627C117.833 91.8627 117.46 91.7824 117.119 91.6155ZM1.61916 77.3207C1.57573 77.1353 1.55092 76.9498 1.55092 76.7644C1.55092 75.6396 2.33258 74.6199 3.48026 74.3603C4.81406 74.0513 6.14785 74.8795 6.45183 76.2082C6.49525 76.3998 6.52007 76.5852 6.52007 76.7706C6.51386 77.8954 5.7384 78.9152 4.59072 79.1747C4.40461 79.218 4.2185 79.2427 4.03239 79.2427C2.90332 79.2427 1.87972 78.464 1.61916 77.3207ZM122.138 78.9893C120.99 78.7297 120.209 77.7162 120.203 76.5914C120.203 76.406 120.227 76.2206 120.271 76.0352C120.569 74.7002 121.902 73.8659 123.236 74.1688C124.384 74.4283 125.165 75.4419 125.172 76.5667C125.172 76.7521 125.153 76.9375 125.11 77.1291C124.849 78.2724 123.825 79.0511 122.69 79.0511C122.51 79.0511 122.324 79.0326 122.138 78.9893ZM0 63.2978C0 61.9319 1.10426 60.8257 2.47527 60.8195C3.84628 60.8195 4.95674 61.9196 4.96294 63.2854C4.96915 64.6512 3.85869 65.7637 2.48768 65.7637H2.48147C1.11666 65.7637 0.00620368 64.6636 0 63.2978ZM121.716 63.1C121.716 63.0382 121.716 62.9826 121.716 62.9208C121.716 62.859 121.716 62.7972 121.716 62.7292C121.704 61.3633 122.808 60.2509 124.179 60.2447C125.55 60.2324 126.667 61.3324 126.679 62.6983C126.679 62.7663 126.679 62.8404 126.679 62.9084C126.679 62.9702 126.679 63.032 126.679 63.1C126.679 64.4658 125.569 65.5721 124.198 65.5721C122.827 65.5721 121.716 64.4658 121.716 63.1ZM3.40582 52.2228C2.25814 51.9632 1.47648 50.9497 1.47027 49.8249C1.47027 49.6457 1.48268 49.4541 1.52611 49.2687C1.83009 47.9337 3.15767 47.0994 4.49146 47.3961C5.63915 47.6495 6.42081 48.663 6.43322 49.7878C6.43322 49.9732 6.41461 50.1586 6.37118 50.3502C6.11063 51.4997 5.08702 52.2784 3.95174 52.2784C3.77184 52.2784 3.59193 52.2599 3.40582 52.2228ZM120.184 49.8125C120.14 49.6209 120.122 49.4355 120.122 49.2501C120.116 48.1253 120.891 47.1056 122.039 46.8398C123.373 46.5308 124.706 47.3528 125.017 48.6815C125.06 48.867 125.085 49.0585 125.085 49.2378C125.085 50.3687 124.316 51.3885 123.168 51.6542C122.976 51.6975 122.789 51.716 122.597 51.716C121.474 51.716 120.451 50.9497 120.184 49.8125ZM7.33275 39.2135C6.43942 38.7932 5.92451 37.9094 5.91831 36.9886C5.91831 36.6301 5.99896 36.2655 6.16026 35.9194C6.75581 34.6895 8.23228 34.1642 9.47302 34.7513C10.3601 35.1778 10.8813 36.0616 10.8813 36.9824C10.8875 37.3409 10.8068 37.7055 10.6393 38.0516C10.2175 38.9415 9.32413 39.4607 8.39978 39.4607C8.03997 39.4607 7.67395 39.3803 7.33275 39.2135ZM115.798 37.5572C115.63 37.2111 115.55 36.8464 115.544 36.488C115.544 35.5671 116.052 34.6834 116.933 34.2507C118.168 33.6513 119.65 34.158 120.258 35.3817C120.426 35.7278 120.506 36.0925 120.513 36.4509C120.513 37.3718 120.004 38.2555 119.117 38.6881C118.769 38.8612 118.397 38.9415 118.031 38.9415C117.113 38.9415 116.232 38.4348 115.798 37.5572ZM14.0699 27.4154C13.4496 26.9272 13.127 26.1979 13.1332 25.4687C13.1332 24.931 13.3131 24.3933 13.6729 23.9422C14.529 22.873 16.0861 22.6937 17.1594 23.5404C17.786 24.0287 18.1085 24.7579 18.1023 25.4872C18.1023 26.0249 17.9224 26.5626 17.5688 27.0137C17.0787 27.6317 16.3529 27.9531 15.6209 27.9531C15.0811 27.9531 14.5352 27.7739 14.0762 27.4154H14.0699ZM108.782 26.5873C108.403 26.1238 108.223 25.5614 108.229 25.0113C108.236 24.2944 108.552 23.5961 109.154 23.114C110.215 22.255 111.778 22.4218 112.64 23.4848C113.019 23.9483 113.199 24.5045 113.192 25.0608C113.192 25.7715 112.87 26.476 112.268 26.9581C111.809 27.3289 111.257 27.5081 110.711 27.5081C109.985 27.5081 109.272 27.1929 108.782 26.5873ZM23.27 17.3973C22.9102 16.9523 22.7303 16.4146 22.7241 15.877C22.7179 15.1477 23.0343 14.4184 23.6484 13.924C24.7155 13.065 26.2788 13.2318 27.1411 14.301C27.5009 14.746 27.6808 15.2837 27.687 15.8213C27.687 16.5506 27.3768 17.2799 26.7627 17.7743C26.3036 18.1451 25.7515 18.3243 25.2056 18.3243C24.4797 18.3243 23.7601 18.003 23.27 17.3973ZM99.4946 17.4344C98.8681 16.9461 98.5455 16.2231 98.5455 15.4876C98.5455 14.9561 98.7254 14.4184 99.079 13.9611C99.9289 12.8919 101.492 12.7065 102.565 13.5532C103.192 14.0476 103.515 14.7707 103.508 15.5062C103.508 16.0377 103.335 16.5753 102.975 17.0265C102.485 17.6445 101.759 17.9659 101.027 17.9659C100.487 17.9659 99.9475 17.7928 99.4946 17.4344ZM34.4677 9.65967C34.2939 9.31358 34.2133 8.94895 34.2133 8.5905C34.2133 7.66965 34.722 6.78588 35.6091 6.35326C36.8375 5.75378 38.3263 6.26674 38.9281 7.49042C39.0956 7.83651 39.1762 8.20114 39.1762 8.56578C39.1762 9.48045 38.6675 10.3704 37.7804 10.7968C37.433 10.9699 37.0608 11.0502 36.701 11.0502C35.7766 11.0502 34.8957 10.5373 34.4677 9.65967ZM88.3962 10.562C87.5029 10.1417 86.9818 9.25796 86.9756 8.33711C86.9756 7.97866 87.0562 7.61402 87.2175 7.26793C87.8069 6.03189 89.2896 5.50657 90.5303 6.09369C91.4174 6.52013 91.9386 7.39772 91.9448 8.31857C91.9448 8.67702 91.8641 9.04783 91.7028 9.39393C91.2748 10.2839 90.3876 10.803 89.4571 10.803C89.0973 10.803 88.7374 10.7227 88.39 10.562H88.3962ZM47.1108 4.59808C47.0673 4.41267 47.0487 4.22727 47.0487 4.04186C47.0425 2.91706 47.818 1.89733 48.9657 1.63158C50.2994 1.32257 51.6332 2.15071 51.9434 3.47946C51.9868 3.67105 52.0117 3.85645 52.0117 4.04186C52.0117 5.16666 51.2362 6.18021 50.0885 6.44596C49.9024 6.49541 49.7101 6.51395 49.524 6.51395C48.3949 6.51395 47.3775 5.74142 47.1108 4.59808ZM76.0509 6.32854C74.9032 6.07515 74.1154 5.0616 74.103 3.9368C74.103 3.75139 74.1216 3.56598 74.165 3.38058C74.4628 2.04565 75.7842 1.20514 77.1242 1.50179C78.2718 1.75518 79.0597 2.76256 79.0659 3.88735C79.0659 4.07276 79.0535 4.26435 79.0101 4.44975C78.7557 5.60545 77.7259 6.38416 76.5906 6.38416C76.4107 6.38416 76.2308 6.36562 76.0509 6.32854ZM60.5665 2.48445C60.5603 1.11862 61.6646 0 63.0418 0C64.4066 0 65.5233 1.0939 65.5295 2.46591C65.5295 3.82555 64.4314 4.93799 63.0604 4.94417H63.048C61.6832 4.94417 60.5727 3.84409 60.5665 2.48445Z" fill="#E3EC42"/>
</g>
<defs>
<clipPath id="clip0_193_465">
<rect width="149" height="150" fill="white"/>
</clipPath>
</defs>
</svg>
