<svg width="95" height="155" viewBox="0 0 95 155" fill="none" xmlns="http://www.w3.org/2000/svg">
<g clip-path="url(#clip0_178_412)">
<path d="M52.0774 28.6137C53.1842 28.6137 54.0815 27.7147 54.0815 26.6057C54.0815 25.4967 53.1842 24.5977 52.0774 24.5977C50.9705 24.5977 50.0732 25.4967 50.0732 26.6057C50.0732 27.7147 50.9705 28.6137 52.0774 28.6137Z" fill="#E3EC42"/>
<path d="M60.2619 36.8129C61.3688 36.8129 62.266 35.9139 62.266 34.8049C62.266 33.6959 61.3688 32.7969 60.2619 32.7969C59.1551 32.7969 58.2578 33.6959 58.2578 34.8049C58.2578 35.9139 59.1551 36.8129 60.2619 36.8129Z" fill="#E3EC42"/>
<path d="M68.4465 45.0141C69.5533 45.0141 70.4506 44.1151 70.4506 43.0061C70.4506 41.8971 69.5533 40.998 68.4465 40.998C67.3397 40.998 66.4424 41.8971 66.4424 43.0061C66.4424 44.1151 67.3397 45.0141 68.4465 45.0141Z" fill="#E3EC42"/>
<path d="M43.8977 36.8129C45.0045 36.8129 45.9018 35.9139 45.9018 34.8049C45.9018 33.6959 45.0045 32.7969 43.8977 32.7969C42.7908 32.7969 41.8936 33.6959 41.8936 34.8049C41.8936 35.9139 42.7908 36.8129 43.8977 36.8129Z" fill="#E3EC42"/>
<path d="M52.0774 45.0141C53.1842 45.0141 54.0815 44.1151 54.0815 43.0061C54.0815 41.8971 53.1842 40.998 52.0774 40.998C50.9705 40.998 50.0732 41.8971 50.0732 43.0061C50.0732 44.1151 50.9705 45.0141 52.0774 45.0141Z" fill="#E3EC42"/>
<path d="M60.2619 53.2094C61.3688 53.2094 62.266 52.3104 62.266 51.2014C62.266 50.0924 61.3688 49.1934 60.2619 49.1934C59.1551 49.1934 58.2578 50.0924 58.2578 51.2014C58.2578 52.3104 59.1551 53.2094 60.2619 53.2094Z" fill="#E3EC42"/>
<path d="M35.7126 45.0141C36.8195 45.0141 37.7167 44.1151 37.7167 43.0061C37.7167 41.8971 36.8195 40.998 35.7126 40.998C34.6058 40.998 33.7085 41.8971 33.7085 43.0061C33.7085 44.1151 34.6058 45.0141 35.7126 45.0141Z" fill="#E3EC42"/>
<path d="M43.8977 53.2094C45.0045 53.2094 45.9018 52.3104 45.9018 51.2014C45.9018 50.0924 45.0045 49.1934 43.8977 49.1934C42.7908 49.1934 41.8936 50.0924 41.8936 51.2014C41.8936 52.3104 42.7908 53.2094 43.8977 53.2094Z" fill="#E3EC42"/>
<path d="M52.0774 61.4106C53.1842 61.4106 54.0815 60.5116 54.0815 59.4026C54.0815 58.2936 53.1842 57.3945 52.0774 57.3945C50.9705 57.3945 50.0732 58.2936 50.0732 59.4026C50.0732 60.5116 50.9705 61.4106 52.0774 61.4106Z" fill="#E3EC42"/>
<path d="M27.528 53.2094C28.6349 53.2094 29.5322 52.3104 29.5322 51.2014C29.5322 50.0924 28.6349 49.1934 27.528 49.1934C26.4212 49.1934 25.5239 50.0924 25.5239 51.2014C25.5239 52.3104 26.4212 53.2094 27.528 53.2094Z" fill="#E3EC42"/>
<path d="M35.7126 61.4106C36.8195 61.4106 37.7167 60.5116 37.7167 59.4026C37.7167 58.2936 36.8195 57.3945 35.7126 57.3945C34.6058 57.3945 33.7085 58.2936 33.7085 59.4026C33.7085 60.5116 34.6058 61.4106 35.7126 61.4106Z" fill="#E3EC42"/>
<path d="M43.8977 69.6118C45.0045 69.6118 45.9018 68.7127 45.9018 67.6037C45.9018 66.4947 45.0045 65.5957 43.8977 65.5957C42.7908 65.5957 41.8936 66.4947 41.8936 67.6037C41.8936 68.7127 42.7908 69.6118 43.8977 69.6118Z" fill="#E3EC42"/>
<path d="M19.3484 61.4106C20.4552 61.4106 21.3525 60.5116 21.3525 59.4026C21.3525 58.2936 20.4552 57.3945 19.3484 57.3945C18.2415 57.3945 17.3442 58.2936 17.3442 59.4026C17.3442 60.5116 18.2415 61.4106 19.3484 61.4106Z" fill="#E3EC42"/>
<path d="M27.528 69.6118C28.6349 69.6118 29.5322 68.7127 29.5322 67.6037C29.5322 66.4947 28.6349 65.5957 27.528 65.5957C26.4212 65.5957 25.5239 66.4947 25.5239 67.6037C25.5239 68.7127 26.4212 69.6118 27.528 69.6118Z" fill="#E3EC42"/>
<path d="M35.7126 77.8071C36.8195 77.8071 37.7167 76.908 37.7167 75.799C37.7167 74.69 36.8195 73.791 35.7126 73.791C34.6058 73.791 33.7085 74.69 33.7085 75.799C33.7085 76.908 34.6058 77.8071 35.7126 77.8071Z" fill="#E3EC42"/>
<path d="M92.9958 4.01606C94.1027 4.01606 94.9999 3.11703 94.9999 2.00803C94.9999 0.899025 94.1027 0 92.9958 0C91.889 0 90.9917 0.899025 90.9917 2.00803C90.9917 3.11703 91.889 4.01606 92.9958 4.01606Z" fill="#E3EC42"/>
<path d="M76.6267 4.01606C77.7335 4.01606 78.6308 3.11703 78.6308 2.00803C78.6308 0.899025 77.7335 0 76.6267 0C75.5198 0 74.6226 0.899025 74.6226 2.00803C74.6226 3.11703 75.5198 4.01606 76.6267 4.01606Z" fill="#E3EC42"/>
<path d="M84.8112 12.2172C85.9181 12.2172 86.8154 11.3182 86.8154 10.2092C86.8154 9.1002 85.9181 8.20117 84.8112 8.20117C83.7044 8.20117 82.8071 9.1002 82.8071 10.2092C82.8071 11.3182 83.7044 12.2172 84.8112 12.2172Z" fill="#E3EC42"/>
<path d="M92.9958 20.4184C94.1027 20.4184 94.9999 19.5194 94.9999 18.4104C94.9999 17.3014 94.1027 16.4023 92.9958 16.4023C91.889 16.4023 90.9917 17.3014 90.9917 18.4104C90.9917 19.5194 91.889 20.4184 92.9958 20.4184Z" fill="#E3EC42"/>
<path d="M68.4465 12.2172C69.5533 12.2172 70.4506 11.3182 70.4506 10.2092C70.4506 9.1002 69.5533 8.20117 68.4465 8.20117C67.3397 8.20117 66.4424 9.1002 66.4424 10.2092C66.4424 11.3182 67.3397 12.2172 68.4465 12.2172Z" fill="#E3EC42"/>
<path d="M76.6267 20.4184C77.7335 20.4184 78.6308 19.5194 78.6308 18.4104C78.6308 17.3014 77.7335 16.4023 76.6267 16.4023C75.5198 16.4023 74.6226 17.3014 74.6226 18.4104C74.6226 19.5194 75.5198 20.4184 76.6267 20.4184Z" fill="#E3EC42"/>
<path d="M84.8112 28.6137C85.9181 28.6137 86.8154 27.7147 86.8154 26.6057C86.8154 25.4967 85.9181 24.5977 84.8112 24.5977C83.7044 24.5977 82.8071 25.4967 82.8071 26.6057C82.8071 27.7147 83.7044 28.6137 84.8112 28.6137Z" fill="#E3EC42"/>
<path d="M60.2619 20.4184C61.3688 20.4184 62.266 19.5194 62.266 18.4104C62.266 17.3014 61.3688 16.4023 60.2619 16.4023C59.1551 16.4023 58.2578 17.3014 58.2578 18.4104C58.2578 19.5194 59.1551 20.4184 60.2619 20.4184Z" fill="#E3EC42"/>
<path d="M68.4465 28.6137C69.5533 28.6137 70.4506 27.7147 70.4506 26.6057C70.4506 25.4967 69.5533 24.5977 68.4465 24.5977C67.3397 24.5977 66.4424 25.4967 66.4424 26.6057C66.4424 27.7147 67.3397 28.6137 68.4465 28.6137Z" fill="#E3EC42"/>
<path d="M76.6267 36.8129C77.7335 36.8129 78.6308 35.9139 78.6308 34.8049C78.6308 33.6959 77.7335 32.7969 76.6267 32.7969C75.5198 32.7969 74.6226 33.6959 74.6226 34.8049C74.6226 35.9139 75.5198 36.8129 76.6267 36.8129Z" fill="#E3EC42"/>
<path d="M92.9958 36.8129C94.1027 36.8129 94.9999 35.9139 94.9999 34.8049C94.9999 33.6959 94.1027 32.7969 92.9958 32.7969C91.889 32.7969 90.9917 33.6959 90.9917 34.8049C90.9917 35.9139 91.889 36.8129 92.9958 36.8129Z" fill="#E3EC42"/>
<path d="M84.8112 45.0141C85.9181 45.0141 86.8154 44.1151 86.8154 43.0061C86.8154 41.8971 85.9181 40.998 84.8112 40.998C83.7044 40.998 82.8071 41.8971 82.8071 43.0061C82.8071 44.1151 83.7044 45.0141 84.8112 45.0141Z" fill="#E3EC42"/>
<path d="M92.9958 53.2094C94.1027 53.2094 94.9999 52.3104 94.9999 51.2014C94.9999 50.0924 94.1027 49.1934 92.9958 49.1934C91.889 49.1934 90.9917 50.0924 90.9917 51.2014C90.9917 52.3104 91.889 53.2094 92.9958 53.2094Z" fill="#E3EC42"/>
<path d="M60.2619 4.01606C61.3688 4.01606 62.266 3.11703 62.266 2.00803C62.266 0.899025 61.3688 0 60.2619 0C59.1551 0 58.2578 0.899025 58.2578 2.00803C58.2578 3.11703 59.1551 4.01606 60.2619 4.01606Z" fill="#E3EC42"/>
<path d="M52.0774 12.2172C53.1842 12.2172 54.0815 11.3182 54.0815 10.2092C54.0815 9.1002 53.1842 8.20117 52.0774 8.20117C50.9705 8.20117 50.0732 9.1002 50.0732 10.2092C50.0732 11.3182 50.9705 12.2172 52.0774 12.2172Z" fill="#E3EC42"/>
<path d="M43.8977 4.01606C45.0045 4.01606 45.9018 3.11703 45.9018 2.00803C45.9018 0.899025 45.0045 0 43.8977 0C42.7908 0 41.8936 0.899025 41.8936 2.00803C41.8936 3.11703 42.7908 4.01606 43.8977 4.01606Z" fill="#E3EC42"/>
<path d="M0 105.806V155H49.0983L32.7339 138.604L73.6475 97.6104L57.2831 81.209L16.3645 122.207L0 105.806Z" fill="white"/>
</g>
<defs>
<clipPath id="clip0_178_412">
<rect width="95" height="155" fill="white"/>
</clipPath>
</defs>
</svg>
