<svg width="268" height="271" viewBox="0 0 268 271" fill="none" xmlns="http://www.w3.org/2000/svg">
<g clip-path="url(#clip0_198_539)">
<path d="M55.2224 0.0103503C24.7239 0.010353 -1.51283e-05 24.7504 -1.24602e-05 55.2688C-9.79224e-06 85.7873 24.7239 110.527 55.2224 110.527C85.7209 110.527 110.445 85.7873 110.445 55.2688C110.445 24.7504 85.7209 0.0103476 55.2224 0.0103503Z" fill="#9F89E9"/>
<path d="M154.843 106.095C157.265 106.129 159.218 108.094 159.24 110.506L159.24 110.618C159.206 113.085 157.176 115.061 154.71 115.017C152.288 114.983 150.335 113.018 150.313 110.606L150.313 110.495C150.347 108.049 152.344 106.095 154.776 106.095L154.843 106.095ZM135.16 114.336C135.551 115.039 135.74 115.81 135.729 116.569C135.718 118.11 134.904 119.606 133.464 120.421C131.322 121.638 128.599 120.879 127.383 118.735C126.981 118.031 126.803 117.261 126.803 116.502C126.803 114.961 127.628 113.465 129.068 112.65C129.771 112.259 130.518 112.069 131.266 112.069C132.828 112.069 134.334 112.884 135.16 114.336ZM180.407 113.431C181.791 114.269 182.55 115.731 182.561 117.25C182.561 118.031 182.349 118.835 181.913 119.561C180.63 121.671 177.885 122.341 175.776 121.069C174.393 120.231 173.634 118.757 173.634 117.25C173.634 116.457 173.835 115.653 174.27 114.927C175.118 113.543 176.591 112.784 178.097 112.784C178.89 112.784 179.682 112.985 180.407 113.431ZM116.236 129.711C117.675 130.548 118.467 132.067 118.456 133.607C118.456 134.367 118.244 135.126 117.843 135.829C116.593 137.951 113.859 138.665 111.728 137.426C110.3 136.589 109.507 135.081 109.518 133.529C109.518 132.77 109.73 132.011 110.132 131.307C110.969 129.889 112.464 129.097 113.993 129.097C114.752 129.097 115.533 129.298 116.236 129.711ZM198.774 132.658C199.142 133.339 199.32 134.065 199.32 134.791C199.32 136.365 198.484 137.906 196.988 138.721C194.824 139.894 192.112 139.101 190.941 136.935C190.561 136.254 190.394 135.528 190.394 134.802C190.394 133.228 191.231 131.687 192.715 130.872C193.395 130.503 194.132 130.325 194.857 130.325C196.43 130.325 197.959 131.173 198.774 132.658ZM112.118 156.999C112.118 159.467 110.121 161.466 107.655 161.466C105.189 161.466 103.192 159.467 103.192 156.999C103.192 154.532 105.189 152.533 107.655 152.533C110.121 152.533 112.118 154.532 112.118 156.999ZM200.604 153.94C203.025 154.018 204.944 156.017 204.933 158.429L204.933 158.54C204.855 161.008 202.802 162.939 200.336 162.872C197.914 162.794 195.995 160.807 196.006 158.395L196.006 158.272C196.073 155.849 198.06 153.94 200.47 153.94L200.604 153.94ZM116.615 175.936C116.95 176.595 117.106 177.287 117.106 177.968C117.106 179.599 116.202 181.162 114.651 181.943C112.453 183.06 109.775 182.178 108.659 179.978C108.325 179.319 108.168 178.627 108.179 177.935C108.179 176.316 109.072 174.753 110.623 173.971C111.27 173.647 111.962 173.491 112.632 173.491C114.261 173.491 115.834 174.384 116.615 175.936ZM195.806 177.846C197.133 178.683 197.881 180.123 197.892 181.597C197.892 182.412 197.68 183.25 197.212 184.009C195.906 186.097 193.15 186.722 191.063 185.416C189.724 184.578 188.988 183.149 188.966 181.675C188.954 180.849 189.178 180.012 189.646 179.264C190.494 177.913 191.956 177.164 193.44 177.164C194.243 177.164 195.069 177.388 195.806 177.846ZM131.288 192.26C132.616 193.109 133.33 194.56 133.33 196.034C133.33 196.861 133.085 197.687 132.605 198.435C131.266 200.501 128.499 201.092 126.434 199.752C125.107 198.893 124.392 197.452 124.392 195.978C124.392 195.152 124.638 194.315 125.118 193.578C125.966 192.26 127.405 191.535 128.867 191.535C129.693 191.535 130.541 191.769 131.288 192.26ZM179.593 196.057C179.927 196.704 180.095 197.396 180.106 198.089C180.128 199.708 179.258 201.282 177.718 202.086C175.531 203.236 172.842 202.399 171.692 200.21C171.347 199.563 171.19 198.87 171.179 198.189C171.157 196.57 172.027 194.996 173.567 194.181C174.225 193.835 174.94 193.667 175.643 193.667C177.238 193.667 178.789 194.538 179.593 196.057ZM152.165 198.937C154.542 199.038 156.417 201.003 156.428 203.37L156.428 203.593C156.316 206.061 154.23 207.97 151.764 207.859C149.376 207.758 147.512 205.793 147.501 203.426L147.501 203.203C147.613 200.802 149.588 198.926 151.965 198.926C152.032 198.926 152.099 198.926 152.165 198.926L152.165 198.937Z" fill="white"/>
<path d="M154.353 74.5423C156.83 74.5423 158.816 76.5633 158.805 79.0197C158.805 81.4873 156.797 83.4859 154.331 83.4748C151.865 83.4748 149.878 81.4649 149.878 78.9974C149.878 76.5298 151.887 74.5423 154.342 74.5423L154.353 74.5423ZM134.435 81.3756C134.58 81.8111 134.647 82.2577 134.658 82.6932C134.658 84.6025 133.465 86.3778 131.556 86.9919C129.213 87.7512 126.691 86.456 125.944 84.1112C125.799 83.6646 125.732 83.2179 125.732 82.7825C125.71 80.8843 126.915 79.0979 128.823 78.4837C129.28 78.3386 129.738 78.2716 130.195 78.2716C132.081 78.2716 133.833 79.4775 134.435 81.3756ZM179.872 78.6624C181.735 79.2765 182.918 81.0072 182.94 82.8718C182.94 83.3408 182.874 83.832 182.717 84.301C181.936 86.6458 179.426 87.9187 177.082 87.1482C175.219 86.5341 174.036 84.8035 174.014 82.95C174.014 82.4699 174.092 81.9897 174.248 81.5096C174.862 79.6338 176.614 78.4391 178.488 78.4391C178.946 78.4391 179.414 78.5172 179.883 78.6624L179.872 78.6624ZM112.007 91.179C112.576 91.9606 112.844 92.865 112.855 93.7583C112.855 95.154 112.23 96.5385 111.014 97.4206C109.017 98.8609 106.227 98.4255 104.777 96.4268C104.219 95.6452 103.94 94.7408 103.929 93.8476C103.917 92.4519 104.553 91.0674 105.77 90.1853C106.562 89.6158 107.477 89.3367 108.392 89.3367C109.776 89.3367 111.137 89.9731 112.007 91.179ZM202.836 90.5314C204.018 91.3912 204.643 92.731 204.655 94.0932C204.655 95.02 204.387 95.9579 203.784 96.773C202.334 98.7604 199.533 99.1847 197.547 97.722C196.375 96.8511 195.739 95.5224 195.728 94.1602C195.728 93.2223 196.007 92.2844 196.598 91.4805C197.469 90.2858 198.83 89.6605 200.191 89.6605C201.117 89.6605 202.043 89.9396 202.836 90.5314ZM93.7076 107.458C94.8903 108.329 95.5263 109.658 95.5487 111.02C95.5487 111.947 95.2697 112.896 94.6895 113.7C93.2277 115.687 90.4382 116.134 88.452 114.671C87.2692 113.812 86.6332 112.472 86.6109 111.121C86.6109 110.183 86.8787 109.245 87.4701 108.43C88.3516 107.235 89.7017 106.599 91.0853 106.599C92.0003 106.599 92.9153 106.878 93.7076 107.458ZM221.013 108.899C221.57 109.68 221.849 110.585 221.849 111.478C221.849 112.874 221.213 114.258 219.997 115.14C217.989 116.57 215.199 116.123 213.771 114.113C213.202 113.332 212.923 112.427 212.923 111.534C212.923 110.138 213.559 108.765 214.775 107.883C215.567 107.313 216.482 107.045 217.386 107.045C218.77 107.045 220.142 107.682 221.013 108.899ZM81.3218 128.595C83.1964 129.198 84.3904 130.929 84.4127 132.793C84.4127 133.262 84.3457 133.742 84.1895 134.222C83.4196 136.567 80.909 137.851 78.5657 137.092C76.6577 136.467 75.4526 134.691 75.4749 132.782C75.4749 132.347 75.553 131.9 75.6981 131.453C76.3118 129.577 78.0636 128.372 79.9494 128.372C80.4069 128.372 80.8643 128.439 81.3218 128.595ZM232.617 132.012C232.762 132.447 232.829 132.894 232.829 133.34C232.829 135.238 231.624 137.014 229.716 137.617C227.373 138.365 224.862 137.058 224.115 134.714C223.97 134.267 223.903 133.82 223.903 133.385C223.903 131.476 225.108 129.711 227.016 129.097C227.462 128.963 227.92 128.896 228.366 128.896C230.263 128.896 232.015 130.102 232.617 132.012ZM80.5965 157C80.5965 159.468 78.5992 161.466 76.1332 161.466C73.6672 161.466 71.6699 159.468 71.6699 157C71.6699 154.533 73.6672 152.534 76.1332 152.534C78.5992 152.534 80.5965 154.533 80.5965 157ZM232.037 153.081C234.503 153.081 236.489 155.102 236.478 157.57C236.456 160.037 234.447 162.025 231.981 162.002C229.515 162.002 227.529 159.981 227.54 157.514C227.562 155.057 229.56 153.081 232.003 153.081L232.037 153.081ZM83.8771 178.807C84.011 179.242 84.0779 179.689 84.0779 180.124C84.0779 182.033 82.8505 183.798 80.9425 184.389C78.5881 185.126 76.0886 183.809 75.3522 181.453C75.2183 181.006 75.1513 180.56 75.1513 180.124C75.1513 178.215 76.3787 176.451 78.2979 175.859C78.7331 175.725 79.1794 175.658 79.6146 175.658C81.5227 175.658 83.2857 176.886 83.8771 178.807ZM229.437 177.433C231.312 178.058 232.494 179.789 232.494 181.654C232.494 182.123 232.428 182.614 232.271 183.083C231.49 185.428 228.957 186.689 226.625 185.908C224.762 185.283 223.579 183.552 223.568 181.698C223.568 181.218 223.635 180.738 223.802 180.258C224.427 178.382 226.168 177.199 228.031 177.199C228.5 177.199 228.98 177.277 229.437 177.433ZM94.0869 199.474C94.6449 200.256 94.9127 201.16 94.9127 202.053C94.9127 203.449 94.2543 204.822 93.0269 205.693C91.0184 207.122 88.2288 206.654 86.8117 204.633C86.2538 203.851 85.986 202.947 85.9972 202.053C85.9972 200.658 86.6444 199.273 87.8718 198.402C88.664 197.855 89.5567 197.587 90.4493 197.587C91.8553 197.587 93.2277 198.246 94.0981 199.474L94.0869 199.474ZM219.406 199.776C220.577 200.646 221.202 201.986 221.213 203.349C221.213 204.286 220.934 205.224 220.332 206.028C218.87 208.005 216.069 208.429 214.094 206.955C212.912 206.084 212.287 204.744 212.287 203.382C212.287 202.455 212.566 201.517 213.157 200.713C214.039 199.53 215.389 198.905 216.75 198.905C217.676 198.905 218.602 199.184 219.406 199.776ZM110.188 215.977C111.36 216.848 111.985 218.188 111.985 219.55C111.985 220.488 111.695 221.426 111.092 222.23C109.619 224.206 106.83 224.608 104.855 223.134C103.683 222.263 103.058 220.923 103.058 219.561C103.058 218.623 103.337 217.685 103.94 216.881C104.821 215.709 106.16 215.084 107.522 215.084C108.448 215.084 109.385 215.374 110.188 215.977ZM202.947 217.92C203.505 218.701 203.773 219.606 203.784 220.499C203.784 221.895 203.137 223.279 201.91 224.15C199.901 225.579 197.123 225.11 195.683 223.112C195.125 222.319 194.858 221.426 194.858 220.521C194.858 219.125 195.494 217.752 196.721 216.881C197.502 216.312 198.417 216.044 199.31 216.044C200.704 216.044 202.077 216.691 202.947 217.92ZM130.586 226.685C132.449 227.321 133.621 229.052 133.621 230.916C133.621 231.385 133.554 231.877 133.386 232.346C132.605 234.69 130.072 235.941 127.729 235.159C125.877 234.523 124.694 232.792 124.694 230.928C124.694 230.447 124.772 229.967 124.928 229.498C125.564 227.634 127.294 226.45 129.157 226.45C129.637 226.45 130.117 226.528 130.586 226.685ZM181.702 230.09C181.836 230.526 181.903 230.972 181.903 231.419C181.903 233.317 180.686 235.081 178.778 235.684C176.424 236.421 173.925 235.115 173.188 232.759C173.043 232.323 172.976 231.877 172.976 231.43C172.976 229.532 174.192 227.768 176.1 227.165C176.536 227.02 176.993 226.953 177.428 226.953C179.325 226.953 181.088 228.181 181.691 230.09L181.702 230.09ZM153.304 230.526C155.759 230.548 157.745 232.569 157.712 235.036C157.689 237.504 155.67 239.48 153.204 239.447C150.749 239.436 148.763 237.404 148.796 234.947C148.818 232.491 150.805 230.514 153.248 230.514C153.248 230.514 153.282 230.514 153.293 230.514L153.304 230.526Z" fill="white"/>
<path d="M158.359 47.4649C158.37 49.9214 156.372 51.9312 153.906 51.9312C151.44 51.9312 149.443 49.9437 149.432 47.4761C149.432 45.0085 151.429 43.0099 153.895 42.9987C156.361 42.9987 158.359 44.9973 158.359 47.4649ZM179.225 45.7901C181.289 46.2479 182.695 48.079 182.706 50.1223C182.706 50.4461 182.672 50.7923 182.594 51.1273C182.059 53.5279 179.66 55.0464 177.261 54.4993C175.196 54.0303 173.79 52.1991 173.779 50.167C173.779 49.832 173.813 49.4971 173.891 49.1621C174.348 47.0853 176.201 45.6784 178.231 45.6784C178.566 45.6784 178.89 45.7119 179.225 45.7901ZM133.922 49.2291C134 49.5641 134.033 49.899 134.033 50.234C134.033 52.2661 132.628 54.1085 130.563 54.5774C128.153 55.1245 125.765 53.6172 125.218 51.2166C125.14 50.8816 125.107 50.5355 125.107 50.2117C125.107 48.1795 126.502 46.3372 128.577 45.8683C128.912 45.7901 129.235 45.7566 129.57 45.7566C131.601 45.7566 133.442 47.1523 133.922 49.2291ZM203.315 54.1643C204.922 54.9347 205.848 56.5314 205.859 58.1951C205.859 58.8427 205.714 59.5014 205.413 60.1267C204.353 62.3487 201.675 63.2866 199.455 62.2258C197.859 61.4554 196.933 59.8587 196.922 58.1951C196.922 57.5475 197.067 56.8887 197.368 56.2634C198.138 54.6556 199.734 53.7288 201.396 53.7288C202.043 53.7288 202.702 53.8628 203.326 54.1643L203.315 54.1643ZM110.478 56.3974C110.78 57.0227 110.925 57.6815 110.925 58.3291C110.925 59.9927 109.998 61.5894 108.403 62.3598C106.194 63.4429 103.516 62.505 102.444 60.283C102.143 59.6689 101.998 58.999 101.998 58.3514C101.998 56.6877 102.924 55.091 104.52 54.3206C105.145 54.0191 105.803 53.874 106.461 53.874C108.113 53.874 109.708 54.8007 110.478 56.3974ZM224.918 67.7081C226.022 68.6014 226.603 69.9189 226.603 71.2365C226.603 72.2079 226.279 73.1681 225.632 73.9832C224.092 75.9149 221.291 76.2387 219.361 74.709C218.245 73.8157 217.665 72.5093 217.676 71.1806C217.676 70.2204 218 69.249 218.636 68.4339C219.517 67.3174 220.823 66.7367 222.139 66.7367C223.11 66.7367 224.092 67.0605 224.918 67.7081ZM89.2329 68.6237C89.8912 69.4388 90.2037 70.4102 90.2148 71.3705C90.2148 72.6992 89.6569 74.0167 88.5411 74.8988C86.6107 76.4396 83.81 76.127 82.2701 74.2065C81.623 73.3914 81.2994 72.42 81.2882 71.4598C81.277 70.1311 81.8573 68.8135 82.9619 67.9203C83.7877 67.2727 84.7696 66.9489 85.7515 66.9489C87.057 66.9489 88.3626 67.5295 89.2329 68.6237ZM242.972 85.7071C243.619 86.511 243.943 87.4824 243.954 88.4426C243.965 89.7713 243.396 91.0889 242.291 91.9821C240.372 93.523 237.56 93.2215 236.009 91.2899C235.362 90.4748 235.038 89.5145 235.027 88.5431C235.027 87.2256 235.585 85.908 236.701 85.0148C237.527 84.356 238.509 84.0322 239.491 84.0322C240.796 84.0322 242.09 84.6017 242.972 85.7071ZM71.2346 85.2605C72.3504 86.1537 72.9195 87.4712 72.9083 88.7888C72.9083 89.7602 72.5847 90.7316 71.9375 91.5467C70.3977 93.4672 67.5858 93.791 65.6666 92.2501C64.5508 91.3569 63.9705 90.0505 63.9817 88.7218C63.9928 87.7616 64.3053 86.7901 64.9525 85.9751C65.834 84.8697 67.1395 84.2891 68.445 84.2891C69.4269 84.2891 70.4089 84.6129 71.2346 85.2605ZM256.607 107.245C256.909 107.871 257.054 108.53 257.054 109.177C257.054 110.841 256.139 112.437 254.543 113.219C252.323 114.291 249.656 113.375 248.573 111.153C248.272 110.528 248.127 109.869 248.127 109.222C248.127 107.558 249.042 105.961 250.638 105.18C251.263 104.878 251.932 104.733 252.59 104.733C254.242 104.733 255.826 105.66 256.607 107.245ZM57.3425 105.481C58.9493 106.252 59.8754 107.848 59.8754 109.512C59.8754 110.16 59.7304 110.819 59.4291 111.444C58.3579 113.666 55.6911 114.604 53.4706 113.532C51.8749 112.761 50.9488 111.165 50.9488 109.501C50.9488 108.853 51.0938 108.195 51.384 107.569C52.1539 105.973 53.7495 105.035 55.4121 105.035C56.0593 105.035 56.7288 105.18 57.3425 105.481ZM265.088 131.307C265.166 131.642 265.21 131.977 265.21 132.312C265.21 134.344 263.804 136.187 261.74 136.656C259.341 137.214 256.942 135.718 256.395 133.317C256.317 132.971 256.273 132.636 256.273 132.301C256.284 130.269 257.679 128.427 259.743 127.958C260.078 127.879 260.412 127.835 260.747 127.835C262.778 127.835 264.619 129.242 265.088 131.307ZM48.3154 128.293C50.3797 128.762 51.7857 130.593 51.7968 132.625C51.7968 132.96 51.7522 133.295 51.6741 133.63C51.1385 136.042 48.7395 137.549 46.3404 137.002C44.2761 136.533 42.8702 134.702 42.859 132.67C42.859 132.335 42.8925 132 42.9706 131.653C43.4393 129.588 45.2804 128.181 47.3223 128.181C47.6459 128.181 47.9807 128.214 48.3154 128.293ZM268 156.642C268 159.11 266.014 161.108 263.548 161.119C261.082 161.119 259.085 159.132 259.073 156.664C259.062 154.197 261.06 152.187 263.526 152.187L263.537 152.187C265.991 152.187 267.989 154.174 268 156.642ZM49.0742 156.999C49.0742 157.111 49.0742 157.212 49.0742 157.323C49.0742 157.435 49.0742 157.546 49.0742 157.669C49.0965 160.137 47.1103 162.147 44.6444 162.158C42.1784 162.18 40.1699 160.193 40.1476 157.725C40.1476 157.602 40.1476 157.468 40.1476 157.345C40.1476 157.234 40.1476 157.122 40.1476 156.999C40.1476 154.532 42.1449 152.533 44.6109 152.533C47.0769 152.533 49.0742 154.532 49.0742 156.999ZM261.874 176.651C263.938 177.12 265.344 178.951 265.355 180.983C265.355 181.307 265.333 181.653 265.255 181.988C264.708 184.4 262.32 185.907 259.921 185.371C257.857 184.913 256.451 183.082 256.429 181.05C256.429 180.715 256.462 180.38 256.54 180.034C257.009 177.957 258.85 176.55 260.892 176.55C261.216 176.55 261.539 176.584 261.874 176.651ZM51.8303 181.005C51.9084 181.352 51.9419 181.686 51.9419 182.021C51.953 184.054 50.5583 185.896 48.494 186.376C46.0949 186.934 43.6959 185.449 43.138 183.049C43.0599 182.714 43.0152 182.368 43.0152 182.044C43.0152 180 44.3989 178.158 46.4632 177.678C46.8091 177.6 47.1438 177.566 47.4897 177.566C49.5094 177.566 51.3505 178.951 51.8303 181.005ZM254.811 200.154C256.418 200.914 257.344 202.51 257.355 204.174C257.355 204.822 257.21 205.48 256.92 206.106C255.849 208.328 253.193 209.277 250.961 208.216C249.366 207.445 248.428 205.849 248.428 204.185C248.417 203.538 248.562 202.879 248.864 202.253C249.622 200.646 251.229 199.708 252.892 199.708C253.539 199.708 254.197 199.853 254.811 200.154ZM59.7192 203.147C60.0205 203.772 60.1656 204.431 60.1767 205.078C60.1767 206.742 59.2617 208.339 57.6772 209.12C55.4567 210.203 52.7899 209.288 51.6964 207.077C51.3951 206.452 51.2501 205.793 51.2389 205.145C51.2389 203.482 52.1539 201.885 53.7495 201.103C54.3744 200.791 55.0439 200.646 55.7022 200.646C57.3537 200.646 58.9381 201.561 59.7192 203.147ZM242.693 221.469C243.809 222.352 244.389 223.669 244.378 224.987C244.378 225.958 244.054 226.929 243.407 227.745C241.867 229.676 239.067 230 237.136 228.47C236.009 227.588 235.429 226.271 235.44 224.953C235.44 223.982 235.764 223.01 236.4 222.195C237.281 221.079 238.587 220.498 239.903 220.498C240.874 220.498 241.856 220.822 242.682 221.469L242.693 221.469ZM72.3393 222.966C73.0199 223.803 73.3435 224.819 73.3323 225.813C73.3212 227.108 72.7521 228.37 71.6698 229.241C69.7617 230.793 66.9498 230.491 65.3988 228.571C64.7181 227.733 64.3945 226.728 64.4057 225.724C64.4057 224.44 64.9859 223.167 66.0683 222.296C66.894 221.626 67.8871 221.302 68.869 221.302C70.1745 221.302 71.4577 221.871 72.3393 222.966ZM226.145 239.569C226.792 240.373 227.116 241.344 227.127 242.316C227.138 243.633 226.569 244.951 225.465 245.844C223.545 247.396 220.733 247.094 219.182 245.163C218.535 244.359 218.212 243.388 218.201 242.416C218.201 241.099 218.758 239.781 219.863 238.888C220.689 238.218 221.682 237.894 222.664 237.894C223.969 237.894 225.264 238.475 226.145 239.569ZM89.0432 239.502C90.1702 240.384 90.7504 241.69 90.7504 243.019C90.7504 243.979 90.4269 244.951 89.7908 245.777C88.2621 247.709 85.4503 248.044 83.5199 246.514C82.3929 245.621 81.8126 244.314 81.8238 242.986C81.8238 242.025 82.1362 241.054 82.7834 240.239C83.6649 239.122 84.9704 238.542 86.2871 238.542C87.2579 238.542 88.2287 238.854 89.0432 239.502ZM206.004 253.548C206.317 254.173 206.462 254.832 206.462 255.48C206.462 257.144 205.547 258.74 203.951 259.522C201.742 260.605 199.064 259.678 197.982 257.467C197.68 256.842 197.535 256.183 197.535 255.525C197.535 253.872 198.45 252.264 200.046 251.494C200.671 251.181 201.34 251.036 201.988 251.036C203.65 251.036 205.235 251.963 206.004 253.548ZM109.005 251.918C110.612 252.677 111.55 254.274 111.561 255.938C111.561 256.585 111.416 257.244 111.126 257.869C110.065 260.102 107.399 261.051 105.167 259.991C103.571 259.22 102.634 257.635 102.623 255.971C102.623 255.324 102.768 254.654 103.058 254.028C103.828 252.42 105.424 251.483 107.097 251.483C107.745 251.483 108.392 251.628 109.017 251.918L109.005 251.918ZM183.264 262.693C183.342 263.028 183.375 263.363 183.375 263.698C183.387 265.73 181.992 267.572 179.928 268.052C177.529 268.611 175.129 267.114 174.572 264.714C174.493 264.368 174.449 264.033 174.449 263.698C174.449 261.666 175.844 259.834 177.908 259.354C178.243 259.265 178.589 259.231 178.923 259.231C180.954 259.231 182.784 260.627 183.264 262.693ZM131.21 259.566C133.275 260.024 134.692 261.855 134.714 263.888C134.714 264.222 134.681 264.557 134.603 264.892C134.067 267.304 131.69 268.823 129.28 268.287C127.216 267.829 125.799 266.009 125.788 263.977C125.788 263.642 125.81 263.296 125.888 262.961C126.345 260.873 128.198 259.466 130.24 259.466C130.563 259.466 130.887 259.499 131.21 259.566ZM159.062 266.511C159.073 268.979 157.087 271 154.609 271C152.155 271 150.146 269.024 150.135 266.545C150.135 264.089 152.11 262.079 154.576 262.068L154.598 262.068C157.053 262.068 159.05 264.055 159.062 266.511Z" fill="white"/>
</g>
<defs>
<clipPath id="clip0_198_539">
<rect width="268" height="271" fill="white" transform="translate(268 271) rotate(180)"/>
</clipPath>
</defs>
</svg>
