<svg width="113" height="150" viewBox="0 0 113 150" fill="none" xmlns="http://www.w3.org/2000/svg">
<g clip-path="url(#clip0_193_497)">
<path d="M28.6143 150L52.1271 103.63L75.64 57.2592C49.9499 44.3089 18.6025 54.5801 5.61166 80.1901C-7.37915 105.8 2.92421 137.05 28.6143 150Z" fill="white"/>
<path d="M55.6711 101.451C54.8148 101.387 54.1589 100.679 54.1589 99.8431V99.716C54.2227 98.826 54.997 98.154 55.8898 98.2175C56.7461 98.272 57.402 98.9804 57.402 99.8159V99.943C57.3383 100.797 56.6277 101.451 55.7805 101.451H55.6711ZM63.0867 99.8431C63.0867 99.7886 63.0867 99.7341 63.0867 99.6797C63.0867 98.8532 63.7061 98.1539 64.5443 98.0722C65.437 97.9723 66.2296 98.6171 66.3207 99.5071C66.3207 99.5616 66.3207 99.6161 66.3207 99.6706C66.3207 100.497 65.7012 101.196 64.8631 101.287C64.8084 101.287 64.7538 101.287 64.6991 101.287C63.8792 101.287 63.1686 100.67 63.0867 99.834V99.8431ZM46.5794 100.025C45.8415 99.8522 45.3496 99.1983 45.3404 98.4718C45.3404 98.3447 45.3587 98.2084 45.3951 98.0722C45.6046 97.2004 46.4792 96.6737 47.3537 96.8825C48.0917 97.0642 48.5836 97.718 48.5927 98.4446C48.5927 98.5717 48.5745 98.7079 48.5472 98.8441C48.365 99.5798 47.6999 100.079 46.9711 100.079C46.8436 100.079 46.7069 100.061 46.5794 100.025ZM71.896 98.4446C71.8596 98.2993 71.8322 98.1539 71.8322 98.0086C71.8413 97.3003 72.3059 96.6555 73.0256 96.4557C73.8911 96.2105 74.793 96.71 75.0298 97.5727C75.0754 97.718 75.0936 97.8724 75.0936 98.0177C75.0936 98.717 74.6199 99.3709 73.9093 99.5707C73.7635 99.607 73.6087 99.6252 73.4629 99.6252C72.7614 99.6252 72.1055 99.162 71.9051 98.4446H71.896ZM37.8703 97.0823C37.269 96.819 36.9046 96.2377 36.8955 95.6202C36.8955 95.3932 36.9411 95.1661 37.0322 94.9482C37.3966 94.1308 38.3531 93.7585 39.173 94.1127C39.7743 94.376 40.1387 94.9663 40.1478 95.5748C40.1478 95.8018 40.1022 96.0289 40.0111 96.2468C39.7469 96.8553 39.1457 97.2186 38.5171 97.2186C38.3076 97.2186 38.0798 97.1731 37.8703 97.0823ZM80.3409 95.5839C80.2316 95.3568 80.1861 95.1207 80.1861 94.8846C80.1861 94.2761 80.5322 93.704 81.1153 93.4225C81.9261 93.041 82.8917 93.3861 83.2743 94.1944C83.3837 94.4214 83.4383 94.6576 83.4383 94.8937C83.4383 95.4931 83.0921 96.0743 82.5091 96.3467C82.2814 96.4557 82.0445 96.5102 81.8167 96.5102C81.2064 96.5102 80.6233 96.1651 80.3409 95.5839ZM88.1846 91.3337C87.9751 91.0431 87.884 90.7162 87.884 90.3983C87.884 89.8897 88.1208 89.3902 88.5672 89.0815C89.3051 88.5547 90.3163 88.7364 90.8356 89.4629C91.036 89.7535 91.1362 90.0805 91.1271 90.3983C91.1271 90.9069 90.8903 91.4064 90.4439 91.7151C90.1615 91.924 89.8335 92.0148 89.5147 92.0148C89.0045 92.0148 88.5035 91.7787 88.1846 91.3337ZM37.8521 90.4619C37.2872 90.1713 36.9593 89.6082 36.9593 89.027C36.9593 88.7727 37.0139 88.5184 37.1324 88.2823C37.5332 87.4831 38.508 87.1653 39.3096 87.5739C39.8745 87.8555 40.2024 88.4185 40.2024 89.0088C40.2024 89.254 40.1478 89.5083 40.0293 89.7444C39.7469 90.3075 39.173 90.6344 38.5808 90.6344C38.3349 90.6344 38.0798 90.5799 37.8521 90.4619ZM95.172 85.8121C94.8531 85.4943 94.6982 85.0765 94.6982 84.6678C94.6982 84.2501 94.8531 83.8414 95.172 83.5236C95.8005 82.8879 96.83 82.8879 97.4677 83.5236C97.7865 83.8414 97.9414 84.2592 97.9414 84.6678C97.9414 85.0856 97.7865 85.5033 97.4677 85.8121C97.1488 86.13 96.7389 86.2934 96.3198 86.2934C95.9008 86.2934 95.4908 86.13 95.172 85.8212V85.8121ZM41.8787 82.5155C41.3138 82.234 40.9859 81.6619 40.9859 81.0806C40.9859 80.8263 41.0405 80.5721 41.159 80.3359C41.5689 79.5459 42.5437 79.2189 43.3454 79.6276C43.9011 79.9091 44.229 80.4722 44.2381 81.0625C44.2381 81.3077 44.1744 81.562 44.0559 81.7981C43.7735 82.3611 43.1996 82.6881 42.6075 82.6881C42.3615 82.6881 42.1155 82.6336 41.8787 82.5155ZM101.112 79.1735C100.665 78.8647 100.419 78.3653 100.419 77.8567C100.419 77.5297 100.51 77.2028 100.711 76.9213H100.72C101.23 76.1857 102.241 76.0131 102.979 76.5217C103.426 76.8396 103.662 77.33 103.662 77.8385C103.662 78.1655 103.571 78.4924 103.371 78.7739H103.38C103.061 79.228 102.551 79.4641 102.041 79.4641C101.722 79.4641 101.394 79.3733 101.112 79.1735ZM45.9053 74.5692C45.3404 74.2876 45.0216 73.7155 45.0125 73.1343C45.0125 72.88 45.0671 72.6348 45.1856 72.3987C45.5955 71.5995 46.5703 71.2816 47.372 71.6812C47.9368 71.9628 48.2556 72.5258 48.2647 73.1161C48.2647 73.3613 48.2101 73.6156 48.0825 73.8517C47.8001 74.4148 47.2353 74.7417 46.6432 74.7417C46.3972 74.7417 46.1421 74.6872 45.9053 74.5692ZM105.822 71.6267C105.248 71.3452 104.901 70.7731 104.901 70.1737C104.892 69.9376 104.947 69.6924 105.056 69.4653C105.43 68.6571 106.405 68.312 107.215 68.6934C107.798 68.9749 108.135 69.5471 108.145 70.1464C108.145 70.3826 108.099 70.6278 107.99 70.8548C107.707 71.436 107.124 71.7811 106.523 71.7811C106.286 71.7811 106.049 71.7266 105.822 71.6267ZM49.9319 66.6228C49.3762 66.3413 49.0482 65.7782 49.0482 65.1879C49.0482 64.9427 49.1029 64.6884 49.2213 64.4523C49.6221 63.6531 50.5969 63.3353 51.3986 63.7349C51.9634 64.0164 52.2913 64.5795 52.2913 65.1698C52.2913 65.424 52.2367 65.6692 52.1183 65.9054C51.8267 66.4775 51.2619 66.7954 50.6698 66.7954C50.4238 66.7954 50.1687 66.7409 49.9319 66.6228ZM109.201 63.3807C108.482 63.19 108.008 62.5452 108.008 61.8368C108.008 61.6915 108.026 61.5371 108.072 61.3918C108.309 60.5291 109.201 60.0296 110.067 60.2657C110.786 60.4655 111.251 61.1103 111.26 61.8187C111.26 61.964 111.242 62.1093 111.196 62.2546C110.996 62.972 110.34 63.4443 109.629 63.4443C109.493 63.4443 109.347 63.4261 109.201 63.3807ZM53.9676 58.6764C53.4028 58.3949 53.0748 57.8319 53.0748 57.2416C53.0748 56.9964 53.1295 56.7421 53.2479 56.506C53.6487 55.7068 54.6235 55.3889 55.4252 55.7885C55.99 56.07 56.318 56.6422 56.318 57.2234C56.318 57.4777 56.2633 57.732 56.1449 57.9681C55.8625 58.5311 55.2885 58.8581 54.6964 58.8581C54.4504 58.8581 54.2044 58.7945 53.9676 58.6764ZM111.105 54.6987C110.267 54.6079 109.648 53.9086 109.648 53.0913V52.9278C109.739 52.0378 110.531 51.384 111.424 51.4748C112.262 51.5565 112.882 52.2558 112.891 53.0822C112.891 53.1367 112.891 53.1912 112.891 53.2457C112.809 54.0812 112.098 54.6987 111.278 54.6987H111.114H111.105ZM57.9942 50.7301C57.4294 50.4486 57.1014 49.8855 57.1014 49.2952C57.1014 49.05 57.1561 48.7957 57.2745 48.5596C57.6844 47.7604 58.6592 47.4426 59.4609 47.8422C60.0166 48.1237 60.3446 48.6958 60.3537 49.2861C60.3537 49.5313 60.299 49.7856 60.1806 50.0217C59.8891 50.5848 59.3151 50.9117 58.723 50.9117C58.477 50.9117 58.231 50.8481 57.9942 50.7301ZM109.748 44.3094V44.1914C109.748 43.3468 110.395 42.6384 111.251 42.5749C112.144 42.5113 112.927 43.1833 112.991 44.0733C112.991 44.0733 112.991 44.155 112.991 44.2004C112.991 45.036 112.335 45.7443 111.488 45.8079H111.36C110.522 45.8079 109.812 45.1631 109.739 44.3094H109.748ZM62.0208 42.7928C61.456 42.5022 61.1371 41.9391 61.128 41.3488C61.128 41.1036 61.1827 40.8494 61.3102 40.6132C61.7111 39.8141 62.6858 39.4962 63.4875 39.8958C64.0523 40.1864 64.3712 40.7495 64.3803 41.3398C64.3803 41.585 64.3256 41.8392 64.2072 42.0754C63.9157 42.6384 63.3508 42.9654 62.7587 42.9654C62.5127 42.9654 62.2577 42.9109 62.0208 42.7928ZM108.381 35.8091C108.345 35.6729 108.327 35.5366 108.327 35.4004C108.327 34.683 108.828 34.0291 109.566 33.8475C110.431 33.6295 111.315 34.1563 111.533 35.0281C111.561 35.1552 111.579 35.2914 111.579 35.4277C111.579 36.1451 111.087 36.799 110.349 36.9806C110.222 37.0169 110.085 37.0351 109.957 37.0351C109.229 37.0351 108.564 36.5447 108.381 35.8091ZM66.0474 34.8465C65.4917 34.5558 65.1637 33.9928 65.1637 33.4025C65.1637 33.1573 65.2184 32.903 65.3368 32.6669C65.7377 31.8677 66.7124 31.5498 67.5141 31.9585C68.0789 32.24 68.4069 32.8031 68.4069 33.3934C68.4069 33.6386 68.3522 33.8929 68.2338 34.129C67.9514 34.6921 67.3774 35.019 66.7853 35.019C66.5393 35.019 66.2843 34.9645 66.0474 34.8465ZM105.585 27.6539C105.484 27.4359 105.439 27.2089 105.439 26.9909C105.439 26.3734 105.812 25.7921 106.414 25.5197C107.234 25.1655 108.19 25.5288 108.554 26.3552C108.646 26.5641 108.691 26.7911 108.691 27.0182C108.682 27.6357 108.327 28.2169 107.725 28.4803C107.507 28.5802 107.288 28.6256 107.07 28.6256C106.441 28.6256 105.849 28.2623 105.585 27.6539ZM70.0831 26.9001C69.5183 26.6186 69.1903 26.0555 69.1903 25.4652C69.1903 25.2109 69.245 24.9657 69.3634 24.7205C69.7643 23.9213 70.7481 23.6035 71.5498 24.0122C72.1146 24.2937 72.4335 24.8567 72.4426 25.447C72.4426 25.6922 72.3788 25.9465 72.2604 26.1827C71.978 26.7457 71.4041 27.0726 70.8119 27.0726C70.5659 27.0726 70.32 27.0182 70.0831 26.9001ZM101.43 20.098C101.248 19.8165 101.157 19.5077 101.166 19.1899C101.166 18.6722 101.421 18.1636 101.886 17.8549C102.633 17.3645 103.644 17.5643 104.145 18.3089C104.337 18.5905 104.419 18.9083 104.419 19.2171C104.419 19.7347 104.163 20.2433 103.699 20.5521C103.416 20.7337 103.107 20.8245 102.797 20.8245C102.269 20.8245 101.758 20.5703 101.44 20.098H101.43ZM74.1097 18.9537C73.5449 18.6722 73.2261 18.1092 73.2169 17.5189C73.2169 17.2646 73.2716 17.0194 73.39 16.7832C73.8 15.9841 74.7747 15.6571 75.5764 16.0658C76.1412 16.3473 76.4601 16.9104 76.4692 17.5007C76.4692 17.755 76.4145 18.0002 76.2961 18.2454C76.0046 18.7993 75.4307 19.1263 74.8385 19.1263C74.5925 19.1263 74.3466 19.0718 74.1097 18.9537ZM96.0556 13.3595C95.7641 13.0507 95.6092 12.6421 95.6183 12.2425C95.6183 11.8156 95.7823 11.3888 96.1194 11.0709C96.7753 10.4625 97.7956 10.4897 98.4151 11.1345C98.7157 11.4524 98.8615 11.852 98.8615 12.2516C98.8615 12.6784 98.6884 13.1052 98.3513 13.4231C98.0416 13.7228 97.6408 13.8681 97.2399 13.8681C96.8117 13.8681 96.3745 13.6955 96.0556 13.3595ZM78.1363 11.0074C77.5715 10.7259 77.2527 10.1628 77.2527 9.57249C77.2527 9.32729 77.3073 9.07301 77.4257 8.83689C77.8266 8.03771 78.8013 7.71986 79.603 8.11944C80.1678 8.40097 80.4958 8.96403 80.4958 9.55433C80.4958 9.80861 80.4411 10.0538 80.3227 10.2899C80.0403 10.853 79.4664 11.1799 78.8742 11.1799C78.6283 11.1799 78.3732 11.1254 78.1363 11.0074ZM89.6058 7.63812C89.1685 7.32935 88.9498 6.83895 88.9498 6.34854C88.9498 6.01252 89.0501 5.66743 89.2687 5.37682C89.7971 4.65937 90.8174 4.51407 91.5371 5.04988C91.9652 5.35865 92.193 5.84906 92.193 6.33946C92.193 6.67548 92.0928 7.02058 91.8741 7.31119C91.5553 7.73802 91.0634 7.96506 90.5714 7.96506C90.2344 7.96506 89.8882 7.85608 89.6058 7.63812ZM82.254 3.10643C82.254 3.10643 82.254 3.10643 82.2358 3.10643C82.2358 3.10643 82.1903 3.08827 82.1629 3.0701C81.3704 2.67051 81.0515 1.69879 81.4523 0.899611C81.8532 0.100434 82.8371 -0.21742 83.6387 0.182168C83.6387 0.182168 83.657 0.200331 83.6752 0.200331C83.6752 0.200331 83.7025 0.218494 83.7207 0.227576C84.2764 0.518186 84.6044 1.08124 84.6044 1.67154C84.6044 1.91674 84.5497 2.17103 84.4313 2.40715C84.1398 2.9702 83.575 3.28806 82.9828 3.28806C82.7277 3.28806 82.4818 3.23357 82.2449 3.11551L82.254 3.10643Z" fill="#E3EC42"/>
</g>
<defs>
<clipPath id="clip0_193_497">
<rect width="113" height="150" fill="white"/>
</clipPath>
</defs>
</svg>
