<svg width="188" height="271" viewBox="0 0 188 271" fill="none" xmlns="http://www.w3.org/2000/svg">
<g clip-path="url(#clip0_198_535)">
<path d="M99.4742 179.254C99.4491 179.028 99.4366 178.814 99.4366 178.614C99.4366 176.117 101.303 173.972 103.846 173.658C106.589 173.319 109.082 175.277 109.42 178.024C109.445 178.25 109.458 178.463 109.458 178.664C109.458 181.161 107.591 183.306 105.061 183.619C104.848 183.645 104.648 183.657 104.447 183.657C101.942 183.657 99.7873 181.788 99.4742 179.254ZM76.0994 182.729C73.6818 182.277 71.9907 180.157 72.0032 177.761C72.0157 177.472 72.0408 177.171 72.0909 176.882C72.592 174.16 75.21 172.353 77.9283 172.855C80.3585 173.319 82.0496 175.44 82.037 177.823C82.0245 178.112 81.9995 178.413 81.9494 178.714C81.4984 181.123 79.3939 182.817 77.0264 182.817C76.7258 182.817 76.4126 182.791 76.0994 182.729ZM126.306 173.244C125.993 172.567 125.843 171.864 125.843 171.174C125.843 169.267 126.908 167.436 128.761 166.582C131.267 165.428 134.248 166.52 135.401 169.041C135.714 169.706 135.864 170.409 135.864 171.111C135.864 173.018 134.787 174.85 132.945 175.703C132.269 176.017 131.555 176.155 130.853 176.155C128.962 176.155 127.146 175.076 126.306 173.244ZM48.7663 173.081C47.0877 172.178 46.1357 170.459 46.1231 168.678C46.1231 167.875 46.311 167.047 46.7244 166.294C48.0397 163.847 51.0712 162.932 53.5139 164.249C55.1799 165.152 56.1445 166.871 56.1445 168.652C56.157 169.455 55.9566 170.283 55.5557 171.049C54.6413 172.73 52.9126 173.683 51.1338 173.683C50.3321 173.683 49.5179 173.495 48.7663 173.081ZM150.032 159.331C149.155 158.378 148.716 157.161 148.716 155.956C148.716 154.601 149.268 153.234 150.357 152.243C152.399 150.373 155.569 150.524 157.435 152.581C158.299 153.535 158.738 154.739 158.738 155.944C158.738 157.311 158.187 158.679 157.097 159.67C156.145 160.548 154.93 160.974 153.727 160.974C152.374 160.974 151.009 160.422 150.032 159.331ZM25.6421 155.592C24.7151 154.626 24.2391 153.384 24.2265 152.142C24.2265 150.812 24.7276 149.495 25.7548 148.491C27.734 146.559 30.9033 146.61 32.8324 148.604C33.7719 149.57 34.2353 150.8 34.2479 152.054C34.2479 153.372 33.7593 154.702 32.7321 155.693C31.7551 156.646 30.5024 157.11 29.2372 157.11C27.9344 157.11 26.6317 156.609 25.6421 155.592ZM168.446 138.907C166.842 137.978 165.941 136.285 165.953 134.541C165.953 133.7 166.179 132.834 166.63 132.044C168.02 129.648 171.089 128.832 173.482 130.225C175.085 131.153 175.974 132.847 175.974 134.591C175.974 135.444 175.749 136.297 175.298 137.087C174.371 138.693 172.692 139.584 170.964 139.584C170.099 139.584 169.235 139.371 168.446 138.907ZM8.86887 131.931C8.5056 131.191 8.33022 130.413 8.34275 129.635C8.34275 127.816 9.36994 126.06 11.1111 125.194C13.5914 123.952 16.5978 124.968 17.838 127.44C18.2012 128.18 18.3766 128.958 18.3641 129.723C18.3515 131.555 17.3369 133.299 15.5957 134.177C14.8691 134.528 14.105 134.704 13.3534 134.704C11.5245 134.704 9.74574 133.688 8.86887 131.931ZM179.833 113.853C177.515 113.338 175.924 111.293 175.899 109.01C175.899 108.634 175.937 108.257 176.012 107.881C176.601 105.171 179.281 103.452 181.987 104.055C184.305 104.556 185.896 106.614 185.921 108.897C185.921 109.261 185.883 109.65 185.808 110.026C185.282 112.372 183.215 113.978 180.91 113.978C180.559 113.978 180.196 113.928 179.833 113.853ZM0.0626333 104.268C0.0250533 104.004 0.0125267 103.753 0 103.503C0 101.069 1.76626 98.9234 4.24654 98.5344C6.98987 98.1079 9.54531 99.9897 9.97122 102.725C10.0088 102.988 10.0338 103.239 10.0338 103.49C10.0338 105.924 8.26759 108.069 5.78731 108.458C5.52425 108.496 5.26119 108.508 5.01066 108.508C2.58049 108.508 0.45096 106.739 0.0626333 104.268ZM177.979 89.6521C177.979 86.8795 180.221 84.6338 182.989 84.6338C185.758 84.6338 188 86.8795 188 89.6521C188 92.4247 185.758 94.6704 182.989 94.6704C180.221 94.6704 177.979 92.4247 177.979 89.6521ZM150.42 89.6521C150.42 86.8795 152.662 84.6338 155.431 84.6338C158.199 84.6338 160.441 86.8795 160.441 89.6521C160.441 92.4247 158.199 94.6704 155.431 94.6704C152.662 94.6704 150.42 92.4247 150.42 89.6521ZM122.861 89.6521C122.861 86.8795 125.104 84.6338 127.872 84.6338C130.64 84.6338 132.883 86.8795 132.883 89.6521C132.883 92.4247 130.64 94.6704 127.872 94.6704C125.104 94.6704 122.861 92.4247 122.861 89.6521ZM95.3028 89.6521C95.3028 86.8795 97.545 84.6338 100.313 84.6338C103.082 84.6338 105.324 86.8795 105.324 89.6521C105.324 92.4247 103.082 94.6704 100.313 94.6704C97.545 94.6704 95.3028 92.4247 95.3028 89.6521ZM67.7441 89.6521C67.7441 86.8795 69.9864 84.6338 72.7548 84.6338C75.5232 84.6338 77.7655 86.8795 77.7655 89.6521C77.7655 92.4247 75.5232 94.6704 72.7548 94.6704C69.9864 94.6704 67.7441 92.4247 67.7441 89.6521ZM40.1855 89.6521C40.1855 86.8795 42.4278 84.6338 45.1962 84.6338C47.9646 84.6338 50.2068 86.8795 50.2068 89.6521C50.2068 92.4247 47.9646 94.6704 45.1962 94.6704C42.4278 94.6704 40.1855 92.4247 40.1855 89.6521ZM12.6269 89.6521C12.6269 86.8795 14.8691 84.6338 17.6375 84.6338C20.4059 84.6338 22.6482 86.8795 22.6482 89.6521C22.6482 92.4247 20.4059 94.6704 17.6375 94.6704C14.8691 94.6704 12.6269 92.4247 12.6269 89.6521Z" fill="white"/>
<path d="M182.989 0H3.9585C3.9585 49.5179 44.0313 89.6517 93.474 89.6517C142.917 89.6517 182.989 49.5179 182.989 0Z" fill="#9F89E9"/>
<path d="M182.989 181.348H3.9585C3.9585 230.866 44.0313 270.999 93.474 270.999C142.917 270.999 182.989 230.866 182.989 181.348Z" fill="#9F89E9"/>
</g>
<defs>
<clipPath id="clip0_198_535">
<rect width="188" height="271" fill="white"/>
</clipPath>
</defs>
</svg>
